/* XPM */
static char *_1a41b8e8f3e4d12f0fe72bd43570060UGXeNBDBy2tD22lV[] = {
/* columns rows colors chars-per-pixel */
"64 64 256 2 ",
"   c black",
".  c #0000A8",
"X  c #00A800",
"o  c #00A8A8",
"O  c #A80000",
"+  c #A800A8",
"@  c #A85400",
"#  c gray66",
"$  c gray33",
"%  c #5454FC",
"&  c #54FC54",
"*  c #54FCFC",
"=  c #FC5454",
"-  c #FC54FC",
";  c #FCFC54",
":  c gray99",
">  c #ECECEC",
",  c gainsboro",
"<  c #D0D0D0",
"1  c #C0C0C0",
"2  c #B4B4B4",
"3  c gray66",
"4  c #989898",
"5  c gray55",
"6  c #7C7C7C",
"7  c gray44",
"8  c #646464",
"9  c gray33",
"0  c #484848",
"q  c gray22",
"w  c #2C2C2C",
"e  c #202020",
"r  c #FC0000",
"t  c #EC0000",
"y  c #E00000",
"u  c #D40000",
"i  c #C80000",
"p  c #BC0000",
"a  c #B00000",
"s  c #A40000",
"d  c #980000",
"f  c #880000",
"g  c #7C0000",
"h  c #700000",
"j  c #640000",
"k  c #580000",
"l  c #4C0000",
"z  c #400000",
"x  c #FCD8D8",
"c  c #FCB8B8",
"v  c #FC9C9C",
"b  c #FC7C7C",
"n  c #FC5C5C",
"m  c #FC4040",
"M  c #FC2020",
"N  c #FC0000",
"B  c #FCA85C",
"V  c #FC9840",
"C  c #FC8820",
"Z  c #FC7800",
"A  c #E46C00",
"S  c #CC6000",
"D  c #B45400",
"F  c #9C4C00",
"G  c #FCFCD8",
"H  c #FCFCB8",
"J  c #FCFC9C",
"K  c #FCFC7C",
"L  c #FCF85C",
"P  c #FCF440",
"I  c #FCF420",
"U  c #FCF400",
"Y  c #E4D800",
"T  c #CCC400",
"R  c #B4AC00",
"E  c #9C9C00",
"W  c #848400",
"Q  c #706C00",
"!  c #585400",
"~  c #404000",
"^  c #D0FC5C",
"/  c #C4FC40",
"(  c #B4FC20",
")  c #A0FC00",
"_  c #90E400",
"`  c #80CC00",
"'  c #74B400",
"]  c #609C00",
"[  c #D8FCD8",
"{  c #BCFCB8",
"}  c #9CFC9C",
"|  c #80FC7C",
" . c #60FC5C",
".. c #40FC40",
"X. c #20FC20",
"o. c #00FC00",
"O. c #00FC00",
"+. c #00EC00",
"@. c #00E000",
"#. c #00D400",
"$. c #04C800",
"%. c #04BC00",
"&. c #04B000",
"*. c #04A400",
"=. c #049800",
"-. c #048800",
";. c #047C00",
":. c #047000",
">. c #046400",
",. c #045800",
"<. c #044C00",
"1. c #044000",
"2. c #D8FCFC",
"3. c #B8FCFC",
"4. c #9CFCFC",
"5. c #7CFCF8",
"6. c #5CFCFC",
"7. c #40FCFC",
"8. c #20FCFC",
"9. c #00FCFC",
"0. c #00E4E4",
"q. c #00CCCC",
"w. c #00B4B4",
"e. c #009C9C",
"r. c #008484",
"t. c #007070",
"y. c #005858",
"u. c #004040",
"i. c #5CBCFC",
"p. c #40B0FC",
"a. c #20A8FC",
"s. c #009CFC",
"d. c #008CE4",
"f. c #007CCC",
"g. c #006CB4",
"h. c #005C9C",
"j. c #D8D8FC",
"k. c #B8BCFC",
"l. c #9C9CFC",
"z. c #7C80FC",
"x. c #5C60FC",
"c. c #4040FC",
"v. c #2024FC",
"b. c #0004FC",
"n. c #0000FC",
"m. c #0000EC",
"M. c #0000E0",
"N. c #0000D4",
"B. c #0000C8",
"V. c #0000BC",
"C. c #0000B0",
"Z. c #0000A4",
"A. c #000098",
"S. c #000088",
"D. c #00007C",
"F. c #000070",
"G. c #000064",
"H. c #000058",
"J. c #00004C",
"K. c #000040",
"L. c #282828",
"P. c #FCE034",
"I. c #FCD424",
"U. c #FCCC18",
"Y. c #FCC008",
"T. c #FCB400",
"R. c #B420FC",
"E. c #A800FC",
"W. c #9800E4",
"Q. c #8000CC",
"!. c #7400B4",
"~. c #60009C",
"^. c #500084",
"/. c #440070",
"(. c #340058",
"). c #280040",
"_. c #FCD8FC",
"`. c #FCB8FC",
"'. c #FC9CFC",
"]. c #FC7CFC",
"[. c #FC5CFC",
"{. c #FC40FC",
"}. c #FC20FC",
"|. c #FC00FC",
" X c #E000E4",
".X c #C800CC",
"XX c #B400B4",
"oX c #9C009C",
"OX c #840084",
"+X c #6C0070",
"@X c #580058",
"#X c #400040",
"$X c #FCE8DC",
"%X c #FCE0D0",
"&X c #FCD8C4",
"*X c #FCD4BC",
"=X c #FCCCB0",
"-X c #FCC4A4",
";X c #FCBC9C",
":X c #FCB890",
">X c #FCB080",
",X c #FCA470",
"<X c #FC9C60",
"1X c #F0945C",
"2X c #E88C58",
"3X c #DC8854",
"4X c #D08050",
"5X c #C87C4C",
"6X c #BC7848",
"7X c #B47044",
"8X c #A86840",
"9X c #A0643C",
"0X c #9C6038",
"qX c #905C34",
"wX c #885830",
"eX c #80502C",
"rX c #744C28",
"tX c #6C4824",
"yX c #5C4020",
"uX c #543C1C",
"iX c #483818",
"pX c #403018",
"aX c #382C14",
"sX c #28200C",
"dX c #600064",
"fX c #006464",
"gX c #006060",
"hX c #00001C",
"jX c #00002C",
"kX c #302410",
"lX c #480048",
"zX c #500050",
"xX c #000034",
"cX c gray11",
"vX c #4C4C4C",
"bX c gray36",
"nX c gray25",
"mX c gray19",
"MX c #343434",
"NX c #D8F4F4",
"BX c #B8E8E8",
"VX c #9CDCDC",
"CX c #74C8C8",
"ZX c #48C0C0",
"AX c #20B4B4",
"SX c #20B0B0",
"DX c #00A4A4",
"FX c #009898",
"GX c #008C8C",
"HX c #008484",
"JX c #007C7C",
"KX c #007878",
"LX c #007474",
"PX c #007070",
"IX c #006C6C",
"UX c #980088",
/* pixels */
"bX5 $ $ $ nXvXL.$ 5 7 0 q w q q vXq vXvX$ vXvXbX8 8 $ $ $ $ $ vXe nXvXw bXbXcXcXcX7 5 6 6 6 6 6 7 8 8 bX8 bXbX0 nXMXcXcXcX6 7 7 ",
"bX6 8 vX$ $ cXe 5 7 bXbXq q mXvX0 q nXnXq q nXvX7 8 bX$ bXvXvX0 e w vX$ vXnXcXcXcXcX7 6 6 6 6 7 $ bX8 8 8 bXbX0 MXnXcXcXL.6 7 8 ",
"4 7 bXbXvXbXw cX5 7 bXbXvXq nXnXnXnX0 nX0 bXvX7 8 bXbX$ 8 8 nXvXcXL.mXw cXmXcXcXcXL.L.5 7 6 6 8 $ bXbX8 $ $ bXq nXcXcXcXq vX7 8 ",
"4 8 bX8 8 bXvXcX6 $ 8 $ bX0 0 0 mXvXnX0 0 7 7 bXvXq nX7 8 8 vXq cXcXmXe L.cXcXcXcXe mXL.bX6 7 bXbXbX8 8 bXbX$ vXnXL.cXcXmXe q vX",
"5 $ $ bXbXbXnXcX7 0 q nX0 vXvX0 vX$ vXnXbX6 8 $ q vX8 nX0 8 bXq cXcXcXcXcXcXvXbXbXvXMXmXmXe bXbX$ bXbXvX8 bX8 $ nXe cXL.q mXw cX",
"6 L.$ $ q 0 nXcX8 q q nX0 $ vXbX$ vXbX$ 6 7 0 q 0 $ bXvXnXbXvXw cXcXcXe vX7 bX7 8 8 8 q L.L.cXnXnXbX$ vX8 $ 8 nX0 cXnX0 0 0 q mX",
"8 0 $ vXvX0 nXe 7 q vX$ $ $ vX$ 8 vX$ $ 8 8 q bXvXvX8 nX$ vXcXe cXcXcX7 8 bXbXvX8 bXbX8 nXmXe cX$ bX8 $ $ bX8 $ 0 cX6 8 8 8 vXq ",
"bX0 vXbX$ w cXvX7 vXvX$ bX$ vXvX8 0 0 $ $ 8 bXbXvXvX$ $ $ 0 mXcXcXcX6 8 $ $ 8 bXbXbXbX8 8 nXcXw cX8 bXvX$ 8 $ $ q w 8 8 8 8 vXvX",
"8 $ L.vXvX0 cXcX8 bXbX$ 8 bXvXvXbXvXnX$ 8 $ bX$ $ 0 vXbXe w cXcXcX6 7 8 $ $ $ bXvX8 8 bXbX8 q w cXcXbXbXvXbXbX$ cXcX7 $ 7 8 bXbX",
"0 0 q vX$ $ cXcX8 $ bX$ w L.bX7 bXvXnXnX$ nX$ vXvX$ nXq cXcXcXcXL.8 $ vX$ $ $ vXbX$ $ $ bX$ bXvXnXL.e $ bX8 $ L.cX7 7 7 bX8 $ bX",
"e vXnXvXvXmXcXcXw L.nXw MXnXq vXq q L.mXw MXvXnXMXe cXcXcXcXcXcX8 8 8 bXbX$ nXvXvX$ 8 vX$ $ $ bXbXnXe q vX8 $ cXcX8 7 8 bXvX8 bX",
"vXq vXvXq cXcXcXe mXcXcXcXcXcXcXcXcXcXcXcXcXcXcXcXcXcXcXcXcXcXcX6 8 0 $ $ $ $ $ $ $ bX0 $ vX$ $ $ bXvXcXL.cXcXcXcX6 6 8 8 bX8 8 ",
"bXq e L.cXcXcXe L.cXe L.cXcXcXcXcXcXcXw 7 7 8 $ 0 nXnXMX0 cXcXcX8 8 vX$ bX$ vX$ vXvX$ vX$ bX$ vX0 vX$ vXcXcXcXcXcX6 7 8 7 6 8 7 ",
"cXcXcXcXcXmX8 8 7 8 8 8 bXnXcXcXcXcXq 5 5 7 7 8 8 7 7 7 7 8 cXw nX$ $ $ bX$ $ bX$ $ $ vXq $ bXvXbXnX8 vX0 cXe cXnX6 8 8 8 8 8 8 ",
"mXq 7 7 7 7 8 7 8 bX8 8 8 8 nXcXcXcX7 5 6 7 8 7 8 $ 8 bX8 vXbXmXmXnXbX$ $ $ vX8 bXbX$ 0 0 nX8 $ $ $ vXbXbXq cXe vX7 8 7 8 8 7 bX",
"6 6 7 7 6 $ 0 8 7 8 8 8 8 8 vXcXe MX7 6 7 7 7 7 vXbXbX0 $ vX$ $ 0 L.e bX0 $ $ bXbX$ 0 vX$ 0 bX0 mXvX0 bX0 q cXe vX7 7 8 bXbX8 8 ",
"8 7 7 7 7 8 8 0 7 7 7 7 7 bXbXL.cX$ 6 5 7 7 7 bXbX$ bXbXvX$ bXbX$ vXcXnXvXvX$ bX$ bXvX$ vXvX$ e nXvXvX$ nXmXcXw $ 8 7 7 7 8 7 8 ",
"7 6 7 7 7 7 bXbXbX8 8 7 7 8 $ w cX8 7 7 8 8 8 8 $ 8 bXvXbXvXbX$ 8 8 0 cX8 bXvX$ bX$ $ vX0 vX$ e vXnX0 8 nXL.cXcX8 6 7 7 7 8 8 8 ",
"8 7 7 8 8 7 8 8 vX$ bX8 8 8 vXcXcXe 0 0 $ bXbXbXbX8 $ 0 bX6 7 8 8 $ q cXw 0 bX$ 0 bX$ vX0 vXnXw vXnXvX8 vXe cXcX6 7 6 7 7 8 7 bX",
"6 7 7 7 8 7 8 bXbXvXbXbX7 8 vXcXcXcXmXe cXcXe mXnXnXvX$ 7 7 8 bX8 vXMXcXcX$ bXbXbX0 vX0 nXnX$ w $ vX$ 7 q mXcXcX6 7 7 7 7 8 7 8 ",
"7 7 7 8 7 8 8 8 bXbX$ vX5 $ vXcXcXcX0 q w mXw w L.cXcXcXw w nXnXvXw cXcXL.$ bXvXvXvXvXvX0 vXnX0 $ $ 8 bXMXmXcX7 7 8 vX6 7 8 8 8 ",
"7 7 7 8 8 8 7 7 8 8 8 7 8 vXq cXcXcX0 8 5 5 6 6 5 7 0 L.L.cXcXcXcXcXcXcXe vXvXbX$ $ $ 0 vX0 0 vXbXbXbXnXq cXcX7 7 8 8 7 7 8 8 8 ",
"7 7 7 8 7 7 7 6 8 8 7 bXbXvXnXcXcXcX4 5 7 7 7 8 8 bX8 8 vX$ L.cXcXcXcXcXq $ nX$ $ bX$ vX0 $ q nXbXbX0 nXe cXcXbX8 bXbXbX8 8 8 bX",
"7 8 7 8 7 7 7 7 6 bX8 8 bXbXe cXcX7 6 5 7 6 7 7 8 bXbXvX8 vXbXMXcXe cXcXbXbX8 $ nXvXw $ $ vX$ bXbXvXvXw cXcXcXbX8 bX$ 8 7 8 bX$ ",
"7 8 7 8 7 7 7 7 7 6 8 8 8 $ cXcXcX4 6 8 6 5 6 7 7 $ bXvX0 0 vX$ vXL.L.e 7 7 8 bXvX0 bXbX$ nX0 bX0 0 q L.cXcXcXe bXvX$ bXvXbXbX$ ",
"5 7 bX7 6 6 7 7 7 7 7 bXvXvXcXcXcX5 7 6 7 6 7 7 $ vXbXvX0 q $ 0 bXvXw w 8 8 8 8 vXvX8 bX$ vX0 0 nXnXcXcXcXcXcXL.MXnX$ vX$ 0 $ $ ",
"7 6 bX7 7 7 7 8 8 7 8 bXq $ e cXcX5 7 7 6 7 7 6 8 7 8 vXnX0 0 $ $ 0 0 cXnX7 8 $ 8 8 7 8 vXvXvXnXvXe e cXcXcXcXw e cXcXcXcXcXw vX",
"7 6 7 7 6 8 7 7 8 7 7 bXvXvXe cXcX4 7 7 6 6 7 7 8 6 8 $ 0 0 vX$ 8 vXvXcXmX$ 8 $ $ bXbX$ mXnXnXq mXw cXcXcX7 8 bXMXL.e cXcXcXcXcX",
"7 $ 6 5 7 8 7 7 8 7 7 8 8 vXw cXcX5 6 7 6 8 7 7 8 7 bXbXvX0 q 7 8 8 vXcXcXw w q mXw w e mXMXmXw e cXcXcX6 6 7 7 8 bX$ vX0 w L.cX",
"8 7 6 6 7 7 7 8 bX7 8 bX8 nXw cXcX6 6 7 8 8 6 8 8 $ bX$ 8 $ 0 7 vX8 q cXcXw q L.cXcXcXcXcXcXL.cXcXcXcX6 6 6 6 6 7 bX8 8 8 8 bXbX",
"6 7 8 8 7 8 8 7 7 7 8 8 bXmXcXcXcX6 6 8 7 bX7 7 7 7 7 8 bX$ vX8 8 7 q cXcXvXbXvX8 nXq e cXcXcXcXcXcXcX5 5 7 6 6 7 6 7 7 7 7 7 8 ",
"q vX$ bX8 7 8 8 bX8 bXnXnXcXcXcXcX6 6 7 6 8 8 6 7 7 7 7 8 $ bXbX8 7 w cXL.$ bX8 8 8 $ mXnXq q cXcXcXcX5 5 7 7 8 8 7 7 6 6 7 6 5 ",
"q q nXnXmXnX$ vXvX0 nXq w cXcXcXcX6 6 7 7 7 7 8 7 7 7 8 7 8 $ $ bX8 cXcXnX8 8 bX7 8 vXnX7 q cXe cXcXcX4 6 8 7 7 8 bX7 6 bXbX8 bX",
"w w e cXcXcXcXcXcXL.cXL.cXcXcXcXcX7 6 7 6 7 7 7 8 7 6 7 7 8 8 bXvXq cXcXbX8 7 7 8 bX8 cXw w mXe cXe e 5 7 8 6 7 7 8 8 7 8 bXbX8 ",
"e L.mXcXcXcXcXcXcXcXcXcXcXcXcXcXcXMX6 7 7 $ bX8 7 7 7 7 7 8 $ 8 0 mXcXcX6 6 6 6 6 7 7 cXcXcXcXcXcXcXq 4 vX6 6 7 7 7 7 8 8 bX8 bX",
"cXmXmXw L.e w w w e e cXcXcXcXcXcXnX6 8 6 8 $ 8 bX6 7 8 7 7 8 8 mXw cXcX5 7 6 6 6 7 7 q cXcXe cXe cX$ 5 7 7 7 8 8 7 8 8 8 bXbXvX",
"cXL.w mXnXq q q MXmXL.w w MXq L.0 0 5 bX7 6 8 bX7 6 8 7 8 8 8 q L.L.cX7 5 6 6 6 6 6 7 vXcXw L.e mXcXbX5 7 7 8 8 8 7 8 8 bX8 $ vX",
"7 7 7 8 7 8 $ vXvX0 MX0 q nXvXnXq nX5 8 6 7 7 7 8 8 8 8 bX$ nXcXe cXcX4 6 6 6 6 6 7 7 q cXe q e q cX8 6 8 8 bX8 7 8 8 bXbXvX0 vX",
"8 $ vXvXbXbX8 vXvX0 0 q q MXvXq mXnX6 6 7 7 7 8 7 7 7 6 bXmXcXcXcXcXcX4 6 6 7 6 6 6 7 MXcXe mXnXq cX7 7 6 8 8 8 bX$ vXvXvXvXvXvX",
"vXvXbXvX$ nX$ $ vXq q MXnXnXvXnXq q 7 7 6 8 8 bX8 8 8 8 nXcXcXcXcXcXcX4 5 6 6 6 7 7 7 q cXcXq 0 $ cX8 7 7 8 bXbXbX$ vXvX$ $ 0 vX",
"8 nX$ $ bX$ bXbX$ $ 7 bX$ vXq q q w vX5 8 7 7 $ 0 8 7 mXcXcXcXcXcXcX0 5 6 6 6 5 5 7 7 nXcXcXbXbX$ cX0 8 7 $ vX$ vX$ $ $ bX0 $ MX",
"vXbX$ $ bX$ $ bXbX7 8 bX7 bXq q e w nXq 7 $ $ 8 8 $ q cXcXcXcXcXcXcX0 7 6 7 7 7 7 8 6 q cXcXvX$ 0 w cX7 8 8 vX$ $ $ bX$ vX0 vXnX",
"bXbX$ $ $ bX0 8 bX$ $ $ bX8 q nXw e e mX8 bXbXvXbXw e cXcXcXcXcXcXw 0 6 8 6 6 6 7 7 6 nXcXcX$ vXq cXcX7 8 8 $ vX$ $ $ $ vXvXvX0 ",
"$ vX$ $ 0 nXbXq $ vXq vXbXvXnXnXq e e cXq nXvXnXq cXcXe w L.L.L.mXnXvX6 8 8 7 6 7 7 7 e cXw vXe cXcXcXvXbXbX$ 0 vXvXvX0 nXnXq vX",
"8 nXq nXvXw vXnXnXnXnXmXnX0 0 nXmXw cXw w MXe cXcXvX6 8 7 bX$ vX0 vXvXe cX5 8 7 6 7 q q cXcXe cXcXcXcXmX$ $ bXbXvXvXvXvXvX0 nX$ ",
"8 mXnXq nXq mXmXq q q nX0 q vXmXq e cXcXw mXw nX6 7 7 8 $ vX0 nXnXnXvX0 w e 6 8 bXnXw cXcXcXmXcXcXcXcXMXw q bXvXvX$ nX0 nX0 bXbX",
"$ MXnXw w q q nXnXq nXq nXvXnXq q cXcXcXL.L.7 6 8 bXvX$ 0 $ vXnXnXq nX0 nXcXmX7 vXcXcXcXcXcXcXcXcXcXe L.L.L.cXcXL.MXw 8 vX$ $ 8 ",
"bXnXq e nXw nXvXMXvXq MXq 0 vXmXw cXcXcXe 5 7 7 8 6 $ vX$ 0 mXq 0 nXvXnXq e w w cXcXcXcXcXcXcXcXcXL.w L.mXmXw w cXcXcXcXmXq MX0 ",
"bXbXMXnXnXnXvXnXvXw mXq w 8 vXq cXcXcXcX5 6 5 8 8 bXnX$ $ 0 w nXq 0 q 8 vXMXq e cXcXcXcXcXcXcXw nXbXbX6 6 6 7 $ nXL.cXcXcXcXcXcX",
"vX8 nXq vX$ nX0 MXnX0 L.bXbXMXmXcXcXcX$ 4 6 6 7 7 bXvXbX0 0 q nXvX0 q 8 bXw L.cXcXcXcXMXvX$ 7 7 8 8 7 7 7 7 6 7 6 bX$ mXL.e cXcX",
"0 q q MXnXq nXnXq 0 nXq vX0 nXcXcXcXcX8 6 6 7 6 8 $ $ $ vX0 nXbXq $ vXbX$ MXq e cX0 7 7 7 8 $ $ vX8 bX7 8 7 7 6 7 7 7 8 $ nXq w ",
"0 w mXvXw nXnXq q q mXq q q cXcXcXcXcX6 5 6 7 7 7 7 vXbXvXnX$ $ 8 vXbX$ nXq cXmXcXq 7 6 8 $ $ 0 vX0 $ 6 8 bX8 8 7 7 6 7 7 bXw MX",
"q e e w e w L.w mXw mXw mXcXcXcXcXcXcX4 5 7 8 bX7 8 $ bX$ 0 $ 8 8 bX0 8 bXq e w cXL.7 7 $ 0 0 q q nX$ 0 nXvXbXbXbX8 7 7 7 7 vXq ",
"cXcXcXcXe cXL.cXL.cXcXcXcXcXcXcXcXcXcX4 6 7 6 8 8 7 bX8 0 $ 7 7 7 8 8 vXvXcXmXe cXq 5 8 q $ bX$ vXvXvX$ 0 0 q mXq q nXvX8 8 8 q ",
"cX0 cXcXcXcXcXcXcXcXcXcXcXcXcXcXcXcXcX5 7 7 7 8 7 8 8 8 bX8 6 7 7 8 bX7 q cXcXmXcXnX6 vXbXvXbXbXvXbXbXvXmXq nXvXvX0 nXvX8 8 bXMX",
"7 8 vXMXcXcXcXcXcXcXcXcXcXcXcXcXcXcXcX7 6 7 8 8 8 7 8 7 8 7 7 7 8 bX8 nXcXcX8 cXcXvX5 8 $ 0 $ $ vX$ nXnXnXMXq 0 vXvX0 q bX8 bXMX",
"7 8 8 bXw mXL.cXcXbXnXq vXmXcXcXcXcXq q 7 7 7 $ 8 8 7 6 8 8 6 6 bX8 bXcXcX7 nXcXcX0 7 8 $ bXvXvXbX8 q q q nX0 $ 0 $ nXnXvX8 7 q ",
"8 8 7 7 bXe nXq 6 bX7 8 8 8 bXbXbX0 0 nX0 bXvX7 8 8 7 7 8 8 6 6 7 bXq w bX$ mXcXcX6 6 bX$ $ $ 8 bXbXbX8 $ bX8 bX8 8 bXnXq bX0 q ",
"7 8 6 7 8 cXq nX5 5 7 6 6 6 7 8 8 bX8 q q q 7 8 vXbXvX8 8 7 7 6 8 0 q q 8 MXcXcXcX6 7 8 8 $ bX8 8 $ 8 bXvX$ 8 $ bX7 8 q 0 q vXq ",
"6 8 7 6 8 0 L.q 4 4 7 bX5 5 5 8 bX8 6 w mXmXnXnXq 0 e vX8 8 6 6 vXmXnX7 MXcXcXcXcX6 7 vXvXbX8 8 0 8 bXbX8 8 7 bX8 7 8 bXbX8 nXq ",
"7 7 7 7 8 vXcXvX5 4 5 7 6 6 6 5 6 7 bX7 nXq q q 8 bXq $ vX8 bX8 cXw 6 nXmXcXcXcXcX6 6 6 bXbXbXbXbXbX8 8 bX7 bX8 8 6 7 bXnXvXw mX",
"7 7 7 7 8 bXnXw nX4 7 7 7 8 8 6 6 7 8 7 bX$ nXnXnX0 bXbXbX8 8 $ 7 7 8 0 e cXcXcXcXcX$ bX7 7 8 8 bX$ bX8 8 7 8 8 8 8 bXbXnXe q q ",
"7 7 7 7 8 7 vXcXmX4 7 8 8 7 7 8 5 6 7 6 nXbX$ 0 nXq mXvX$ 8 bX8 8 0 w e cXcXcXcXcXcX$ nXbXbX$ 8 8 8 8 8 7 6 7 8 nXvXnXe cXe e w ",
"6 7 7 bX6 6 0 L.MX5 6 7 6 $ 6 6 5 6 bX8 8 7 8 bXbX$ q w cXq 0 vXw mXcXcXcXcXcXcXcXcX0 0 e q $ 8 bX8 7 7 7 bX8 vXcXcXe cXcXcXcXcX"
};
