/* XPM */
static char *efa5edefad4343df89a7c49fcfc6d5297KuRMdBHJYKmpwtY[] = {
/* columns rows colors chars-per-pixel */
"64 64 256 2 ",
"   c black",
".  c #0000A8",
"X  c #00A800",
"o  c #00A8A8",
"O  c #A80000",
"+  c #A800A8",
"@  c #A85400",
"#  c gray66",
"$  c gray33",
"%  c #5454FC",
"&  c #54FC54",
"*  c #54FCFC",
"=  c #FC5454",
"-  c #FC54FC",
";  c #FCFC54",
":  c gray99",
">  c #ECECEC",
",  c gainsboro",
"<  c #D0D0D0",
"1  c #C0C0C0",
"2  c #B4B4B4",
"3  c gray66",
"4  c #989898",
"5  c gray55",
"6  c #7C7C7C",
"7  c gray44",
"8  c #646464",
"9  c gray33",
"0  c #484848",
"q  c gray22",
"w  c #2C2C2C",
"e  c #202020",
"r  c #FC0000",
"t  c #EC0000",
"y  c #E00000",
"u  c #D40000",
"i  c #C80000",
"p  c #BC0000",
"a  c #B00000",
"s  c #A40000",
"d  c #980000",
"f  c #880000",
"g  c #7C0000",
"h  c #700000",
"j  c #640000",
"k  c #580000",
"l  c #4C0000",
"z  c #400000",
"x  c #FCD8D8",
"c  c #FCB8B8",
"v  c #FC9C9C",
"b  c #FC7C7C",
"n  c #FC5C5C",
"m  c #FC4040",
"M  c #FC2020",
"N  c #FC0000",
"B  c #FCA85C",
"V  c #FC9840",
"C  c #FC8820",
"Z  c #FC7800",
"A  c #E46C00",
"S  c #CC6000",
"D  c #B45400",
"F  c #9C4C00",
"G  c #FCFCD8",
"H  c #FCFCB8",
"J  c #FCFC9C",
"K  c #FCFC7C",
"L  c #FCF85C",
"P  c #FCF440",
"I  c #FCF420",
"U  c #FCF400",
"Y  c #E4D800",
"T  c #CCC400",
"R  c #B4AC00",
"E  c #9C9C00",
"W  c #848400",
"Q  c #706C00",
"!  c #585400",
"~  c #404000",
"^  c #D0FC5C",
"/  c #C4FC40",
"(  c #B4FC20",
")  c #A0FC00",
"_  c #90E400",
"`  c #80CC00",
"'  c #74B400",
"]  c #609C00",
"[  c #D8FCD8",
"{  c #BCFCB8",
"}  c #9CFC9C",
"|  c #80FC7C",
" . c #60FC5C",
".. c #40FC40",
"X. c #20FC20",
"o. c #00FC00",
"O. c #00FC00",
"+. c #00EC00",
"@. c #00E000",
"#. c #00D400",
"$. c #04C800",
"%. c #04BC00",
"&. c #04B000",
"*. c #04A400",
"=. c #049800",
"-. c #048800",
";. c #047C00",
":. c #047000",
">. c #046400",
",. c #045800",
"<. c #044C00",
"1. c #044000",
"2. c #D8FCFC",
"3. c #B8FCFC",
"4. c #9CFCFC",
"5. c #7CFCF8",
"6. c #5CFCFC",
"7. c #40FCFC",
"8. c #20FCFC",
"9. c #00FCFC",
"0. c #00E4E4",
"q. c #00CCCC",
"w. c #00B4B4",
"e. c #009C9C",
"r. c #008484",
"t. c #007070",
"y. c #005858",
"u. c #004040",
"i. c #5CBCFC",
"p. c #40B0FC",
"a. c #20A8FC",
"s. c #009CFC",
"d. c #008CE4",
"f. c #007CCC",
"g. c #006CB4",
"h. c #005C9C",
"j. c #D8D8FC",
"k. c #B8BCFC",
"l. c #9C9CFC",
"z. c #7C80FC",
"x. c #5C60FC",
"c. c #4040FC",
"v. c #2024FC",
"b. c #0004FC",
"n. c #0000FC",
"m. c #0000EC",
"M. c #0000E0",
"N. c #0000D4",
"B. c #0000C8",
"V. c #0000BC",
"C. c #0000B0",
"Z. c #0000A4",
"A. c #000098",
"S. c #000088",
"D. c #00007C",
"F. c #000070",
"G. c #000064",
"H. c #000058",
"J. c #00004C",
"K. c #000040",
"L. c #282828",
"P. c #FCE034",
"I. c #FCD424",
"U. c #FCCC18",
"Y. c #FCC008",
"T. c #FCB400",
"R. c #B420FC",
"E. c #A800FC",
"W. c #9800E4",
"Q. c #8000CC",
"!. c #7400B4",
"~. c #60009C",
"^. c #500084",
"/. c #440070",
"(. c #340058",
"). c #280040",
"_. c #FCD8FC",
"`. c #FCB8FC",
"'. c #FC9CFC",
"]. c #FC7CFC",
"[. c #FC5CFC",
"{. c #FC40FC",
"}. c #FC20FC",
"|. c #FC00FC",
" X c #E000E4",
".X c #C800CC",
"XX c #B400B4",
"oX c #9C009C",
"OX c #840084",
"+X c #6C0070",
"@X c #580058",
"#X c #400040",
"$X c #FCE8DC",
"%X c #FCE0D0",
"&X c #FCD8C4",
"*X c #FCD4BC",
"=X c #FCCCB0",
"-X c #FCC4A4",
";X c #FCBC9C",
":X c #FCB890",
">X c #FCB080",
",X c #FCA470",
"<X c #FC9C60",
"1X c #F0945C",
"2X c #E88C58",
"3X c #DC8854",
"4X c #D08050",
"5X c #C87C4C",
"6X c #BC7848",
"7X c #B47044",
"8X c #A86840",
"9X c #A0643C",
"0X c #9C6038",
"qX c #905C34",
"wX c #885830",
"eX c #80502C",
"rX c #744C28",
"tX c #6C4824",
"yX c #5C4020",
"uX c #543C1C",
"iX c #483818",
"pX c #403018",
"aX c #382C14",
"sX c #28200C",
"dX c #600064",
"fX c #006464",
"gX c #006060",
"hX c #00001C",
"jX c #00002C",
"kX c #302410",
"lX c #480048",
"zX c #500050",
"xX c #000034",
"cX c gray11",
"vX c #4C4C4C",
"bX c gray36",
"nX c gray25",
"mX c gray19",
"MX c #343434",
"NX c #D8F4F4",
"BX c #B8E8E8",
"VX c #9CDCDC",
"CX c #74C8C8",
"ZX c #48C0C0",
"AX c #20B4B4",
"SX c #20B0B0",
"DX c #00A4A4",
"FX c #009898",
"GX c #008C8C",
"HX c #008484",
"JX c #007C7C",
"KX c #007878",
"LX c #007474",
"PX c #007070",
"IX c #006C6C",
"UX c #980088",
/* pixels */
"q q q L.q q q q q L.q q q q L.q q q w w w w w w w w w w w w w w w w w w w w w w w w w w w w w w w w w w w q q q q L.q q q q q L.",
"$ $ $ 0 0 nX$ $ $ $ $ $ 0 0 nXnX0 nX0 0 0 w 4 < < < < < < < < < < < < < < < < < # 5 w q q q q q 0 $ $ $ $ $ nX$ $ 0 0 q 0 0 0 q ",
"1 1 1 2 2 2 2 2 # 5 $ q $ $ 0 0 7 1 , , 1 $ 4 1 , , , , , , , , , , , , , , , < 5 8 w , , , < 7 0 q $ $ $ $ 4 < < 1 < 1 1 # < 1 ",
"# # # # # # 5 7 $ q q $ 0 0   5 , , 1 1 # 5 $ # < , 1 1 # # # # # # # # # # # 4 8 w < , , , , < 7 0 q q $ $ $ 7 # 2 2 1 # 4 # # ",
"# 4 # 4 4 5 $ q q $ 0 5 5 4 w 4 < 1 1 1 1 5 $ 5 < , 1 # # # 4 4 # 4 4 4 4 4 4 5 8 6 , 1 1 1 < 2 5 w 4 4 q q $ 8 7 # 4 # # 4 4 4 ",
"4 4 4 4 6 $ q q $ 0 # < , , 1 w $ 5 1 # # 5 7 $ 5 < 2 # # 4 4 4 # 4 4 4 4 4 4 8 w < 1 # # # 1 $ w 4 , < 6 $ q q $ 7 4 5 4 5 4 4 ",
"4 4 4 4 0 q q $ 0 < , , < < , 5 w $ 5 # # # 5 $ 5 1 1 # 4 4 4 4 4 4 4 4 4 4 5 8 6 , # # # # $ w 4 , < # 4 6 $ q q $ 7 # 4 4 4 4 ",
"4 4 4 7 q q $ 0 < , < < # # # , 5 w $ 5 # # 5 7 $ 5 1 5 5 5 5 5 5 5 5 5 5 5 8 w < 1 # # # $ w 4 , < # # # 4 6 $ q q $ 7 # 5 4 4 ",
"5 5 5 0 q $ 0 # , < 1 # # # # 4 < 5 w $ 5 5 5 7 $ $ $ $ $ $ $ $ $ $ $ $ $ $ $ w 2 2 # # $ w 4 , < # # # 4 4 4 8 $ q q $ 7 4 5 4 ",
"6 6 0 q 0 0 $ $ 6 , # 4 # 4 4 4 # < 5 w $ $ $ $ $ e w w w w w w w w w w e w e $ $ 5 2 7 w 4 , < # # 4 4 4 4 5 6 $ $ q q $ q 5 6 ",
"L.L.L.0 0 2 , 4 $ 6 # # # 4 4 4 # 5 1 5 w $ q q e e e e e e e e e e e e e e   e q q $ w 4 , < # # # 4 4 4 5 6 $ w q q w 0 0 mXL.",
"q q q 0 2 , < , 4 w $ 6 4 4 4 4 5 6 8 $ $   e e                               e e     $ $ 7 < # 4 4 4 4 6 $ w q 4 4 7 q w q 0 q ",
"# 0 0 5 , < < < , 1 w $ 8 6 5 5 6 q q q e e                                         e q q q 5 < 4 5 6 8 q w # , < < 2 7 q w q > ",
"5 L.0 2 < 1 # # < , 1 7 w $ 8 8 $ q e e                                               e e q q 5 < 8 $ w 7 # , < # # # 6 q q q > ",
"8 L.7 , < 1 1 1 2 2 , , 6 w w $ q e e                                                   e e e q $ w w # , , 1 # # # # 4 7 q w < ",
"8 L.5 , < 2 # # # # # < , 6 w   e                                                           e e   w # , , 1 # # # 4 4 4 7 q w < ",
"8 L.2 , < # # # 4 4 # 5 6 $ q e                                                                 e $ 5 , , 1 # 4 4 4 5 5 7 q w 1 ",
"8 L.2 < < # 4 4 4 5 # 5 $ q e                                                                   e q $ # , , 1 4 4 5 5 5 6 q e 1 ",
"8 L.2 5 5 6 5 5 5 5 5 6 $ e e                           ~ ! Q Q ! sX                            e e $ 7 , < 1 6 6 $ $ $ $ $ e 2 ",
"8 L.q w w w $ $ $ $ 7 $ q e                           ~ R P.pXI.P.!                               e q 7 $ 7 $ $ $ w w w w w w # ",
"e mX, , 2 5 6 w w w e e e e       R I.I.I.I.T         ! T P.I.P.T.Q           T I.I.I.I.T         e q e q w w w 7 1 , , < 5 w e ",
"0 $ , < < < , , , 4 q           E T.Y.Y.Y.Y.T.Q       Q   T P.I.P.Q         E T.Y.Y.Y.Y.T.Q           e q 7 < , , < 1 2 2 7 w 0 ",
"$ q , 1 # # # # 4 1 q w e     E T.Y.R ! ! ~ Y.T.Q         ~ I.Y.T.!       E T.Y.~ ! ~ R Y.T.Q     e w q $ 7 , 1 1 # # 4 # $ w $ ",
"nX$ , 1 4 # 4 4 4 # q w e   E T.Y.R ! W I.T.~ Y.T.Q       ~ I.Y.T.      E T.Y.~ T.I.W ~ R Y.T.Q   e w q $ 7 , 1 # 4 # 4 5 $ w nX",
"0 nX, 1 # # 4 4 4 5 q w e ! T.Y.~ ! W ! T.! T.~ Y.T.Q   ~ ! Y.I.T.~   E T.Y.~ T.~ T.~ W ! ~ Y.T.! e w q $ 7 , 1 # # 4 5 5 $ w 0 ",
"q nX, 1 4 4 4 4 4 5 q w e   ~ ~ E ~ I.T.! I.! T.~ Y.T.! E I.~ E ~ T.! T.Y.~ T.~ I.~ P.R ~ E ~ ~   e w q $ 7 , 1 5 5 5 5 5 $ w q ",
"q nX< # 5 5 5 5 5 5 q w e   ~ Y.T ~ T.! I.! I.! T.~ ! ~ I.~ P.~ P.I.~ ! ~ T.~ I.~ P.! E ~ P.Y.~   e w q $ 7 7 $ $ $ $ $ $ $ w q ",
"q $ 0 L.L.L.L.L.L.L.e       T Y.T ~ ! ~ R ! P.! I.T.~ T.~ T.~ P.! ~ T.~ T.I.! P.! R ~ ! ~ P.Y.T         e w 0 q L.L.L.L.L.L.L.q ",
"mX$ 0 $ nX0 nX$ $ $ e       P.Y.T ~ P.E iXE ! P.! ~ T.~ T.P.~ T.R T.~ T.~ ! P.~ E ~ E T ~ P.Y.T         e w $ mX$ mX$ nXnXnX$ mX",
"0 $ , , < < < < 1 # q w e   P.Y.T ~ P.T ~ ~ E ! T R ~ T.! ~ T.P.E ~ T.iXE E ~ E ~ ~ P.T ~ P.Y.T   e w q $ 7 , < < < < 1 # # nX0 ",
"0 q , 1 2 # # # # 4 q w e   P.Y.T ~ P.T ~ W ~ ~ ! ~ T.! P.T.! T.~ P.! T.~ ! ~ ! W ~ P.T ~ P.Y.T   e w q $ 7 < 2 # # # 4 4 4 L.0 ",
"q $ , 1 # 4 # 4 4 5 q w e   P.Y.T ~ P.T ~ P.E ~ W ! ~ ! E P.T.~ P.E ! ~ ~ W ~ E T ~ P.T ~ P.Y.T   e w q $ 7 < # 4 4 4 4 4 5 e q ",
"# q < 1 # # # 4 5 5 q w e   P.Y.T ~ P.T ~ P.T ~ T     ~ ! U ~ W ~ ~ !     P.~ P.T ~ P.T ~ P.Y.T   e w q $ 7 < # 4 # 4 4 4 5 q > ",
"5 q < 2 # 4 4 4 5 5 q w e   P.Y.T ~ P.T ~ P.T ~ T ~ ! P.Y ! T.R ~ Y W ! ~ P.~ P.T ~ P.T ~ P.Y.T   e w q $ 7 < # 4 4 4 4 5 5 q > ",
"6 L.< 2 # 4 4 4 5 5 q w e   P.Y.T ~ P.T ~ P.T ~ T ~ ! P.Y ! U R ~ Y R ! ~ P.~ P.T ~ P.T ~ P.Y.T   e w q $ 7 1 # 4 4 4 5 5 6 mX< ",
"8 L.1 # 4 # 4 4 4 5 q w e   P.Y.T ~ P.T ~ P.T ~ T ~ ! P.Y ! P.R ~ Y R ! ~ P.~ P.T ~ P.T ~ P.Y.T   e w q $ 7 1 # 4 4 4 4 5 6 q < ",
"6 L.1 # 4 4 # 4 5 6 q w e   P.Y.~ W P.T ~ P.T ~ T ~ ! W ~ T ! R E ~ R ! ~ P.~ P.T ~ P.T W ~ Y.T   e w q $ 7 1 4 4 4 4 4 4 5 mX1 ",
"6 e 2 4 4 4 4 4 5 8 q w e   ~ ~ T ~ P.T ~ P.T ~ T ~ ! ~ Y P.! R ~ Y ~ ! ~ P.~ P.T ~ P.T ~ P.~ ~   e w q $ 7 2 4 5 5 5 5 5 6 L.1 ",
"6 e # 5 6 6 6 6 8 8 q w e   P.Y.T ~ P.T ~ P.T ~ T   ! U Y R ~ ! P.Y W !   P.~ P.T ~ P.T ~ P.Y.T   e w q $ 7 # 5 8 8 8 8 8 8 L.2 ",
"8 L.0 q q mXq mXL.L.e       P.Y.T ~ P.T ~ P.T ~ T   ~ ~ Y ! Y R ~ Y R !   P.~ P.T ~ P.T ~ P.Y.T         e w 0 L.L.L.L.L.L.L.L.# ",
"e L.$ nX$ $ $ 0 0 0 e       P.Y.T ~ P.T ~ P.T ~ T     ~ ! P.Y R W ~ R !   P.~ P.T ~ P.T ~ P.Y.T         e w q $ nXnXnX$ $ $ q $ ",
"0 $ > , < < < < 1 # q w e   P.Y.T ~ P.T ~ P.T ~ T     ! Y U P.R P.Y ~ !   P.~ P.T ~ P.T ~ P.Y.T   e w q $ 7 > , < < < < 1 # q 0 ",
"$ q , < 2 2 2 # 4 4 q w e   P.Y.T ~ P.T ~ P.T ~ T     ! Y ~ Y R ~ Y R !   P.~ P.T ~ P.T ~ P.Y.T   e w q $ 7 , < 2 2 2 # 4 4 L.$ ",
"nX$ < 2 4 4 4 4 4 5 q w e   P.Y.T ~ P.T ~ P.T ~ T     ! Y ! Y R ~ Y ~ ~   P.~ P.T ~ P.T ~ P.Y.T   e w q $ 7 < 2 4 4 4 4 4 5 L.nX",
"0 nX< # 4 4 4 4 5 5 q w e   P.Y.T ~ P.T ~ P.T ~ T     ! ! U ! ~ ~ Y ~     P.~ P.T ~ P.T ~ P.Y.T   e w q $ 7 < # 4 4 4 4 5 5 L.0 ",
"q nX< # 4 5 4 4 5 6 q w e   P.Y.T ~ P.T ~ P.T ~ T     ! U T ! ~ ~ T !     P.~ P.T ~ P.T ~ P.Y.T   e w q $ 7 < # 4 5 4 4 5 6 L.q ",
"q nX1 # 4 4 4 4 5 5 q w e   P.Y.T ~ P.T ~ P.T ~ E   ! U T ! a d ! U T !   E ~ P.T ~ P.T ~ P.Y.T   e w q $ 7 1 # 4 4 4 4 5 5 L.q ",
"q $ 1 # 4 # 4 4 4 5 q w e   P.Y.T ~ P.T ~ P.T ~     ! T ! a d z   ! U T !   ~ P.T ~ P.T ~ P.Y.T   e w q $ 7 1 # # 4 4 # 4 6 e q ",
"mX$ 1 # 4 4 # 4 5 6 q w e   P.Y.T ~ P.T ~ P.E       ! ! a d z   l d ! ! z     E T ~ P.T ~ P.Y.T   e w q $ 7 1 2 # 4 4 4 5 6 e mX",
"0 $ 2 4 4 4 4 4 5 8 q w e   P.Y.T ~ P.T ~ E       z   l i a d l i a d a d z     E ~ P.T ~ P.Y.T   e w q $ 7 2 4 5 5 5 5 6 8 e 0 ",
"0 q # 5 6 6 6 6 8 8 q w e   P.Y.T ~ P.E         l d z   l i a i a d l i a d z       E T ~ P.Y.T   e w q $ 7 # 5 6 8 8 8 8 8 L.0 ",
"q $ 0 q q mXq mXL.L.e       P.Y.T ~ E         z i a d z   l i a d z   l i a d z       E ~ P.Y.T         e w 0 q L.L.L.L.L.q mXnX",
"# 0 0 $ nX0 nX$ $ $ e       P.Y.E               l i a d z i a i a d z   l i z             E Y.T         e w $ mX$ mX$ nXnXnX$ > ",
"5 L.> , < < < < 1 # q w e   P.E                   l i a i a d z i a d z   z                 E T   e w q $ 7 , < < < < 1 # # nX< ",
"6 L., 1 2 # # # # 4 q w e   E                       l i a d z   l i a d z                     E   e w q $ 7 < 2 # # # 4 4 4 L.< ",
"8 L., 1 # 4 # 4 4 5 q w e                             l i z   l i a d z                           e w q $ 7 < # 4 4 4 4 4 5 e < ",
"8 L.< 1 # # # 4 5 5 q w e                               z   l i a d z                             e w q $ 7 < # 4 # 4 4 4 5 e < ",
"8 L.< 2 # 4 4 4 5 5 q w e                                 z i a d z                               e w q $ 7 < # 4 4 4 4 5 5 e < ",
"6 L.1 2 # 4 4 4 5 6 q w e       e e e e e e e e e e e e e e l a z   e e e e e e e e e e e e       e w q $ 7 < 2 # # 4 4 4 5 e 1 ",
"8 L.1 # 4 5 4 5 5 8 q w e     e e e e e e e e e mXmXmXmXmXmXmXmXmXmXmXmXmXmXmXe e e e e e e       e w q $ 7 2 4 4 4 4 4 5 8 e 1 ",
"8 L.# 4 5 6 6 6 8 8 q w e     aXaXaXaXaXaXaXaXaXaXaXaXaXaXaXaXaXaXaXaXaXaXaXaXaXaXaXaXaXaXaXsX    e w q $ 7 # 5 6 6 6 6 8 8 L.# ",
"L.mXnXL.L.e L.e L.L.q w e     aXsXsXsXsXsXsXsXsXsXsXsXsXsXsXsXsXsXsXsXsXsXsXsXsXsXsXsXsXsXsXsX    e w q $ 7 0 q q mXq mXL.L.L.nX",
"q 0 0 nX$ 0 0 0 $ 0 q w e e q $ $ $ $ $ $ $ $ $ $ $ $ $ $ $ $ $ $ $ $ $ $ $ $ $ $ $ $ $ $ $ $ w e e w q $ 7 0 0 nX$ 0 0 0 $ 0 0 ",
"$ $ $ $ $ $ $ $ $ $ q w e e $ 8 7 7 7 7 7 7 7 7 7 7 7 7 7 7 7 7 7 7 7 7 7 7 7 7 7 7 7 7 7 7 8 q e e w q $ 7 $ $ $ $ $ $ $ $ $ $ "
};
