/* XPM */
static char *_630647a52f941f7a027e79470fa00c7ckr5IoDFOXhBEip5[] = {
/* columns rows colors chars-per-pixel */
"64 64 256 2 ",
"   c black",
".  c #0000A8",
"X  c #00A800",
"o  c #00A8A8",
"O  c #A80000",
"+  c #A800A8",
"@  c #A85400",
"#  c gray66",
"$  c gray33",
"%  c #5454FC",
"&  c #54FC54",
"*  c #54FCFC",
"=  c #FC5454",
"-  c #FC54FC",
";  c #FCFC54",
":  c gray99",
">  c #ECECEC",
",  c gainsboro",
"<  c #D0D0D0",
"1  c #C0C0C0",
"2  c #B4B4B4",
"3  c gray66",
"4  c #989898",
"5  c gray55",
"6  c #7C7C7C",
"7  c gray44",
"8  c #646464",
"9  c gray33",
"0  c #484848",
"q  c gray22",
"w  c #2C2C2C",
"e  c #202020",
"r  c #FC0000",
"t  c #EC0000",
"y  c #E00000",
"u  c #D40000",
"i  c #C80000",
"p  c #BC0000",
"a  c #B00000",
"s  c #A40000",
"d  c #980000",
"f  c #880000",
"g  c #7C0000",
"h  c #700000",
"j  c #640000",
"k  c #580000",
"l  c #4C0000",
"z  c #400000",
"x  c #FCD8D8",
"c  c #FCB8B8",
"v  c #FC9C9C",
"b  c #FC7C7C",
"n  c #FC5C5C",
"m  c #FC4040",
"M  c #FC2020",
"N  c #FC0000",
"B  c #FCA85C",
"V  c #FC9840",
"C  c #FC8820",
"Z  c #FC7800",
"A  c #E46C00",
"S  c #CC6000",
"D  c #B45400",
"F  c #9C4C00",
"G  c #FCFCD8",
"H  c #FCFCB8",
"J  c #FCFC9C",
"K  c #FCFC7C",
"L  c #FCF85C",
"P  c #FCF440",
"I  c #FCF420",
"U  c #FCF400",
"Y  c #E4D800",
"T  c #CCC400",
"R  c #B4AC00",
"E  c #9C9C00",
"W  c #848400",
"Q  c #706C00",
"!  c #585400",
"~  c #404000",
"^  c #D0FC5C",
"/  c #C4FC40",
"(  c #B4FC20",
")  c #A0FC00",
"_  c #90E400",
"`  c #80CC00",
"'  c #74B400",
"]  c #609C00",
"[  c #D8FCD8",
"{  c #BCFCB8",
"}  c #9CFC9C",
"|  c #80FC7C",
" . c #60FC5C",
".. c #40FC40",
"X. c #20FC20",
"o. c #00FC00",
"O. c #00FC00",
"+. c #00EC00",
"@. c #00E000",
"#. c #00D400",
"$. c #04C800",
"%. c #04BC00",
"&. c #04B000",
"*. c #04A400",
"=. c #049800",
"-. c #048800",
";. c #047C00",
":. c #047000",
">. c #046400",
",. c #045800",
"<. c #044C00",
"1. c #044000",
"2. c #D8FCFC",
"3. c #B8FCFC",
"4. c #9CFCFC",
"5. c #7CFCF8",
"6. c #5CFCFC",
"7. c #40FCFC",
"8. c #20FCFC",
"9. c #00FCFC",
"0. c #00E4E4",
"q. c #00CCCC",
"w. c #00B4B4",
"e. c #009C9C",
"r. c #008484",
"t. c #007070",
"y. c #005858",
"u. c #004040",
"i. c #5CBCFC",
"p. c #40B0FC",
"a. c #20A8FC",
"s. c #009CFC",
"d. c #008CE4",
"f. c #007CCC",
"g. c #006CB4",
"h. c #005C9C",
"j. c #D8D8FC",
"k. c #B8BCFC",
"l. c #9C9CFC",
"z. c #7C80FC",
"x. c #5C60FC",
"c. c #4040FC",
"v. c #2024FC",
"b. c #0004FC",
"n. c #0000FC",
"m. c #0000EC",
"M. c #0000E0",
"N. c #0000D4",
"B. c #0000C8",
"V. c #0000BC",
"C. c #0000B0",
"Z. c #0000A4",
"A. c #000098",
"S. c #000088",
"D. c #00007C",
"F. c #000070",
"G. c #000064",
"H. c #000058",
"J. c #00004C",
"K. c #000040",
"L. c #282828",
"P. c #FCE034",
"I. c #FCD424",
"U. c #FCCC18",
"Y. c #FCC008",
"T. c #FCB400",
"R. c #B420FC",
"E. c #A800FC",
"W. c #9800E4",
"Q. c #8000CC",
"!. c #7400B4",
"~. c #60009C",
"^. c #500084",
"/. c #440070",
"(. c #340058",
"). c #280040",
"_. c #FCD8FC",
"`. c #FCB8FC",
"'. c #FC9CFC",
"]. c #FC7CFC",
"[. c #FC5CFC",
"{. c #FC40FC",
"}. c #FC20FC",
"|. c #FC00FC",
" X c #E000E4",
".X c #C800CC",
"XX c #B400B4",
"oX c #9C009C",
"OX c #840084",
"+X c #6C0070",
"@X c #580058",
"#X c #400040",
"$X c #FCE8DC",
"%X c #FCE0D0",
"&X c #FCD8C4",
"*X c #FCD4BC",
"=X c #FCCCB0",
"-X c #FCC4A4",
";X c #FCBC9C",
":X c #FCB890",
">X c #FCB080",
",X c #FCA470",
"<X c #FC9C60",
"1X c #F0945C",
"2X c #E88C58",
"3X c #DC8854",
"4X c #D08050",
"5X c #C87C4C",
"6X c #BC7848",
"7X c #B47044",
"8X c #A86840",
"9X c #A0643C",
"0X c #9C6038",
"qX c #905C34",
"wX c #885830",
"eX c #80502C",
"rX c #744C28",
"tX c #6C4824",
"yX c #5C4020",
"uX c #543C1C",
"iX c #483818",
"pX c #403018",
"aX c #382C14",
"sX c #28200C",
"dX c #600064",
"fX c #006464",
"gX c #006060",
"hX c #00001C",
"jX c #00002C",
"kX c #302410",
"lX c #480048",
"zX c #500050",
"xX c #000034",
"cX c gray11",
"vX c #4C4C4C",
"bX c gray36",
"nX c gray25",
"mX c gray19",
"MX c #343434",
"NX c #D8F4F4",
"BX c #B8E8E8",
"VX c #9CDCDC",
"CX c #74C8C8",
"ZX c #48C0C0",
"AX c #20B4B4",
"SX c #20B0B0",
"DX c #00A4A4",
"FX c #009898",
"GX c #008C8C",
"HX c #008484",
"JX c #007C7C",
"KX c #007878",
"LX c #007474",
"PX c #007070",
"IX c #006C6C",
"UX c #980088",
/* pixels */
"5 5 6 7 7 6 6 5 5 5 4 4 2 4 5 6 4 # 5 4 4 5 6 5 5 6 6 5 5 6 4 2 7 5 6 6 6 6 4 4 4 5 5 6 5 5 6 5 4 # 5 6 6 6 6 5 5 6 4 4 5 5 5 4 ",
"2 2 qXeX9XqXeXqX8X9XeX9X9XqX9XqXqXeXeXeX9X9XeXqXeX9XqXqX8XqXqX1 # 4 eXeXeX9X9XeXqXeXeXeXqXeX9XeXqXqX9XqXqX9X9X9XqX9X9XqXwX9X9X6 ",
"2 2 eXeXtXyXeXeXrXeXeXwXeXeXeXeXtXtXyXeXrXeXrXrXyXwXeXrXeXeXwX5 < 4 yXeXrXeXeXrXeXeXrXuXrXyXeXrXeXeXeXeXeXrXrXqXeXqXqXeXrXeXrX6 ",
"2 1 qXrXwXrXrXqXrXyXrXeXrXtXeXeXeXwXwXeXqXwXeXrXtXrXwXwXqXwXeX6 < # uXeXrXeX9X9XqXqXqXeXqXrXeXeXqXqXwXeXwXqXwX9X9X9XqXqXqX      ",
"2 1 eXrXeXwXeXqXeXrXyXtXrXyXtXeXeXwXwXwXeXwXwXqXwXrXeXwXqXqXrX5 < # eXpXyXyXeXqXqXqXqXwX9XqXwXrXeX9XwXeXeXqXqXwXqX9XqXqX  # < < ",
"# # rXrXyXeXeXrXeXqXeXqXqXqXtXwXwXrXwXwXwXeXeXqXqXwXwXqX9XqXrX5 < # uXyXeXrXeXrXeXwXqXqXqXqXqXwXrXqXwXwXwXrXqXwXeXqXqX  # < q   ",
"4 4 rXrXtXrXrXtXrXqXeXeXrXqXqXwXeXrXqXwXqXwXqXwXqXwXeXwXwXrXeX4 1 1 pXeXwXeXwXwXrXeXwX9XqXwXwXqXeXqXqXqXeXeXqXwXrXrX  # < < 7 0 ",
"4                                                                                                     yXrXwXqXqXwXeX  # # < < < ",
"4   8 8 8 8 8 8 8 8 8 8 8 8 8 8 8 8 8 8 8 8 8 8 8   8 8 8 8 8 8 8 8 8 8 8 8 8 8 8 8 8 8 8 8 8 8 8 8   uXeXrX9X9X9XqX        < < ",
"# 0   < < < < < < < < < < < < < < < < < < < < < 8   < < < < < < < < < < < < < < < < < < < < < < < <     uXeXeXqXeXqXuXyXuX  < < ",
"2 4 0   < < < < < < < < < < < < < < < < < < < < < 8   < < < < < < < < < < < < < < < < < < < < < < < 8   uXqXwXwXeXqX9X9X    < < ",
"1 1 kX0   < < < < < < < < < < < < < < < < < < < < < 8   < < < < < < < < < < < < < < < < < < < < < < <     uXqXqXwX9XqX    8 < < ",
"1 < pXtX0                                                                                     < < < < 8     uXyXrXeX    8 < < < ",
"5 4 uXeXyX0   8 8 8 8 8 8 8 8 8 8 8 8 8 8 8 8 8 8 8 8 8 8   < < < < < <   8 < < < 8   < < 8   < < < < < 8             8 < < < < ",
"# 4 4 2 < 5 0   < < < < < < < < < < < < < < < < < < < < < 8               < < < <     8 < < 8   < < < < < < 8   < <   < < <   < ",
"< < 1 < < 1 6 0   < < < < < < < < < < < < < < < < < < < < < 8   < < < <   < < <   8 <   < <   8   < < < < < <   < <   < < <   < ",
"# # # 4 4 4 4 6 0   < < < < < < < < < < < < < < < < < < < < < 8   < < <   8 <   8 < <   8   8 < 8   < < < < <   < <   < < <     ",
"9XqXqXeX9X9XqXeXuX0                                                           8 < < < <   8 < < <     < < < <   <   8   < <   8 ",
"eXwX9XwXeXqXeXwXeXiX0   8 8 8 8 8 8 8 8 8 8 8 8 8 8 8 8 8 8 8 8 8 8   < < <   < < < <     < < <   8 8   < < <     < < <     8 < ",
"eXeXeXwXqXwXeXrXrXrXyX0   < < < < < < < < < < < < < < < < < < < < < 8         8 < <   8 <   <     < <       < <     < <   <   < ",
"eXqXqXwXqXwXwXeXqXqXqXtX0   < < < < < < < < < < < < < < < < < < < < < 8   < <   8   8 < < <   8 < < <   < 8       <     < < <   ",
"wXwXwXwXwXeXqXqXqXwXwXqXyX0   < < < < < < < < < < < < < < < < < < < < < 8   < <   8 < < < <     8 <   8 < <   <   <   <   < <   ",
"eXeXqXqXeXwXqXeXwXqXwXqXwXyX0                                                       8 < <   8 <       < <   8 <   <   <   <   8 ",
"qXwXeXwXwXqXwXwXqXeXqXwXqXwXyX0 0 0 0 0 0 0 0 0 0 0 0 0 0 0 0 0 0 0 0 0 0 0 0 0 0 0   8   8 < < <   8   <   < <   <   < <   8 < ",
"wX9X9XwXqXwX0XqX9XeXwXwX9XqXeXtXbXbXiXtXtXiXsXuXuXtXyXuXyXuXiXkXiXuXtXtXyXtXyXtXyXuX0   8 < < <   < < 8     8 <       <   8   < ",
"qXwXwXqXwXwXeXtXeXwXwXwXqX9XeX8X4 6 yXrXqX6XrXiXqXeXqXeXqX8X9XeXrXeXeXwXeXqX9X9XwXwXuX0     8 <   < < <   <       <       < 8   ",
"qXwXqXqXqX9XqXeXqX9XwXeXwXeXeXeX4 4 tXqXtXeX6XtXyXqXwXqXwXqXqXwXrXqXwXqXeXeX9X9XqXwXeXtX0 0     8 < < <   < < <   <   <         ",
"wXqXrXwXwXqXqX9XqXqXeXeXeXrXyXqX4 2 rXqXwXyX9X9XyXeXeX9XqXwXwXeXrXrXtXeXwXwXeXwXqXwXqXeXtXtX0     8 <   < < <       < < <   <   ",
"rXwXwX9XeXeXeXeXrXtXeXeXyXtXuXqX5 2 pXtXwXeXyXwXyXuXtXyXuXyXeXwXuXrXtXrXyXqX9XeXrXrXqXrXtX7XtX0 0       < < <   <   <       <   ",
"yXuXrXyXyXrXyXrXyXtXyXyXrXyXrXqX5 5 uXuXuXqXrXpXyXpXyXyXpXyXrXuXpXuXrXrXuXeXwXuXrXrXpXrXuXuXrX7 6 0 0   8 < <   < 8   <   8 <   ",
"6 6 7 7 8 8 7 7 7 6 6 7 6 7 6 7 7 6 6 6 6 6 7 7 8 8 7 7 7 6 6 7 6 7 6 7 7 6 6 6 6 6 6 6 7 7 6 6 5 7 7 0     8   < <   <   < <   ",
"7 8 7 7 6 6 5 6 6 6 5 # 1 # 4 2 2 4 7 7 7 6 5 5 6 5 5 4 4 4 6 7 6 6 6 5 6 7 7 7 6 6 7 7 8 7 6 # 1 # 4 7 0 0     8 < <   8 < <   ",
"4 4 4 4 4 # # # 4 # # # 2 2 # # 1 2 4 4 4 4 # # # # # # # # 4 4 4 4 4 4 4 4 4 4 4 4 4 4 4 4 # # # # # 4 5 4 0 0   8 <           ",
"5 6 eX9XqX9X9X9X9XeXqXrXeXqXeX9XqXqXeX9X9XqXeXeXqX9XqXqX9X9XqX5 6 5 eX9XqXqXqXrXqXeX9XqX8X8X9X9X8XwXqXeXqXeXeXtX0   8 < < < <   ",
"4 5 eXqXrXeXeXeXrXeXrX9XqX9X8XrXqXeXwXqXqXeX9X9X8XeXqXeXeXqXeX6 # 6 rXrXeXrXeXwXeXqXtXqXqXqXwXwXwXqXeXeXwXqXqXqXuX0   8 < <     ",
"5 6 yXwXeXyXeXtXtXrXtXrXqXeXqXeXeXyXqXqXrXeXqXqXwXwXeXeXeXqXeX6 # 5 tXyXrXqXeXwXwXwXeXeXqXqXwXqXwXqXeXqXeXqXwXqXwXuX0           ",
"4 5 rXeXeXwXrXeXqXwXrXwXeXqXqXeXqXeXwXeXeXqXrXwXwXwXqXqXqXeXwX7 # 5 eXqXrXqX9X9X9XeXqXeXqXwXeXqXwXwXeXqXwXqXqXqXqXqX  < < <     ",
"4 5 tXrXwXeX9XyX9X8XyXqXqXwXrXqXqXwXqXtXqX9XrXeXqXwX9XqXqXqXeX7 2 4 qXeXqXtXwXtXeXqXqX9XeXwXwXwXeXeXrXrXqXwXqXwX9X  < 8     0 < ",
"4 4 rXeXeXtX9XtXyXtXeXrXqXqXrXeXeXqXeXrXrXwXrXwX9XqXqXwXqXwXeX4 2 4 wXwXeXrXeXqXwXeXwXqXeXwXwXeXwXqXqXeXqXwXwXwX  < 8   < < 0 < ",
"4 4 yXeXeXwXyXqXqXtXeXrXrXrXqXqXwXeXeXeXeXeXqXeXqXwXeXeXrX9XeX5 1 # rXqXeXwXrXqXwXqXwXqXwXqXqXqXqXeXqXwXwXwXwX  <   0 < < < 0 < ",
"4 # yXeXqXrXeXtXqX9XeXqXqXeXyX9X9XeXqX9XqXwXeXeXtXrXrXrXrXqXqX5 < # tXeXeXqXwXwXqXeXqXqXwXqXwXwXqXqXwXwXwXqXqX    < 0 0 <       ",
"# # yXwXqXrXeXrXtXqXqXqXwX9XqXrXqX9X9XwXrXeXqXqXrXeXeXwXeXwXrX5 < # 9XeXwXqXwXwXqXqXqXeXqXeXwXqXwXqXwXqXwXqX    < < <   cX    vX",
"2 # uXwXwXqXrXwXuXrX9X9XeXqX9XrXeXwXqX9XqXqXeXqXwXqXrXwXwXqXeX5 < 1 qXwXwX9XwXeXeXwX9XwXwXwXqXqXwXwXeXwXwX  < 0 0 < <       vX< ",
"2 1 iXrXtXqXeXrXeXrXeXwXeXeXeXqXqXtXyXeXrXeXtXwXeX9XeXqXqXqXwX4 < 1 eXqXeXwXwXrXeXtXqX9XqXqXqXqXwXwXwXqXwX  < < 0         vX< < ",
"2 1 uXrXeXeXeXuXuXtXrXrXtXrXrXtXtX9XrXrXrXeXrXeXeXtXrXeXtXqXqX4 1 1 yXeXrXeXwXeXrXyXyXeXeXqXrXwXeXrXrXeX  < < < <       vX< < 2 ",
"4 1 eXqXqXqXqXqXrXyXrXrXrXuXrXyXyXrXrXrXeXqXyXyXuXyXuXyXyXpXuX5 # 5 uXeXrXrXuXrXrXrXrXrXyXrXrXrXuXyXyXyX  < < <       vX< < 2 vX",
"5 4 4 4 5 5 4 4 4 6 7 8 bX6 6 7 7 8 7 8 8 6 6 7 8 8 8 7 8 8 6 # 1 1 2 4 5 6 5 4 4 4 4 5 5 6 7 6 6 6 6 6   0 0 0     vX  vX< < 2 ",
"6 5 4 5 5 4 4 4 # # # 4 6 5 5 6 6 6 6 5 6 4 4 4 4 4 5 4 5 4 4 2 2 1 1 1 2 # # 1 2 # 2 2 2 2 # 2 4 # # 2   < < <   vX< vX  vX< < ",
"4 # # 4 # 4 4 # 4 4 4 4 # 4 4 4 4 5 5 5 4 4 4 4 4 4 2 4 4 # 4 2 # 4 4 # 1 < 4 2 2 4 4 # # # # # 4 4 4 #   < < < vX< < 2 vX  vX< ",
"9X9XwXqXeXqXeX9XqX9XqX9X9XqXqX8X4 5 eX9XqX9X9X9X9XeXqXrXeXqXeX9XqXqXeX9X9XqXeXeXqX9XqXqX9X9XqX5 # eX9XqX  < < <   vX< < 2 vX< < ",
"eXeXeXeXeXrXwXeXqX9XwXqXrXeXwXqX2 4 yXqXtXeX9XwXwXyXyXeXwXeX9XeXqXeXwXeXwXtXwXyXyXqXqXqX9XqXwX6 5 pXqXrX  0 0 0     vX< < < < 2 ",
"rXqXqXeXeXwXwXqXqXeXwX9X0XwXeX9X2 4 uXrXrXyXeXeXrXwXwXqXtXwXeXeXeXeXqXrXwXrXwXqXyXeXeXwXqXqXeX6 # uXeXeX  < < <       vX< < 2 vX",
"qXeXeXwXeXeXeXwXwXqXqXqXqXeXqXeX2 4 rXrXqXrXyXrXqXqXqXrXyXeXrXeXwXwXeXqXwXeXrXwXrXeXwXwXqX0XeX8 # pXwXeX    < < <       vX< vX  ",
"qXqXwXwXwXwXqXqXqX9X9XqXqXwXqXwX< # rXrXwXeXeXtXtXrXyXwXqXwXwXeXwXeXeXqXeXeXwXeXwXwXeX9XqXqXrX7 # rXwXeXyX  < < 0         vX  vX",
"rXwXwXrXqXwXwXqXwXqXqX9XwXqXwXqX1 # yXtXuXyXeXqXrXtXtXrXwXwXeXwXrXeXeXqXeXeXqXqXwXwXwXwXwXwXeX6 # tXqXeXwX  < 0 0 < <       vX< ",
"eXeXwXqXqXwXwXqXeXwXqXqXwXqXqXqX4 2 pXwXqXyXrXtXwXeXqXwXwXqXwXeXeXeXqXeXeXwXqXqXeXeXeXrXwXwXeX# 2 rXeXeXeXtX    < < <         vX",
"wX9XwXqXwXqXqXqXqXwXqXqXwXqXqXeX6 # uXeX8XwXwXeXqXqXeXwXqXqXwXtXeXqXtXqXeXqXwXqXwXeXwXwXqX9XeX2 # eXwXrXtXwXuX  < < 0 0 <       ",
"eXeXeXqXeXwXqX9XqXqXqXqXeXwXwXrX7 2 rXrXeXqXeXqXwXwXwXeXqXeXeXeX9X9X8XqXwXqXeXqXeXeX9X9XqXqXeX2 2 yXwXeXrXrXqXtX    0 < < < 0 < ",
"8XrXqXqXqXeXeXqXqX9X9XqXeXeXeXrX8 < uXqXwXqXeXyXeXrXqXwXqXeXqXqXqX9XqXtXwXqXwXwXtXwXwXwXwXwXtX# # uXwXeXeXrXeXeXuX  < < < < 0 < ",
"6XwXqXeXwXqXwXwX9X9XqXqXqXeXrXeX# , pXeXrXrXeXeXqXwXqX0XwXqXeXqXwXwXwXrXrXrXyXtXtXeXqXwXrXwXtX# 1 0 tXeXwXrXpXrXuXuX      < 0 < ",
"eXeXeXeXrXqXqXeXyXyXyXrXrXyXyXqX1 $XyXuXpXpXiXeXeXwXeXwXwXeXrXyXwXwXrXiXiXuXuXtXyXuXeXeXwXtXyX5 2 eXuXrXrXeXrXyXpXuXuXuXiX      ",
"rXrXeXwXrXeXuXuXpXuXeXqXeXuXqXeX6 # eXeXqXeX9XuXrXeXwXuXpXuXuXuXuXpXrXqXeXqXqXeXqXeXuXeXeXqXqX# # qXqXeXeXqXqXeXeXeXuXeXqXuXuXuX",
"6 6 6 5 4 5 5 5 5 5 5 5 # # 2 5 5 4 # 5 # # 5 5 6 6 5 # 5 5 4 5 5 # 2 1 1 2 5 6 6 6 6 6 5 4 # 4 5 5 6 7 7 6 5 5 5 4 5 5 4 5 5 5 ",
"5 6 6 6 6 5 4 5 6 5 5 5 4 5 5 4 6 5 5 5 6 6 5 5 6 6 6 5 6 5 5 6 6 5 # 5 4 5 5 # # 4 5 6 6 5 4 5 4 4 5 6 6 5 5 6 5 5 5 5 4 5 4 5 "
};
