/* XPM */
static char *af0d4416083943a9ec8edea56d7c301b7IiIHMzln4dwrHp8[] = {
/* columns rows colors chars-per-pixel */
"64 64 224 2 ",
"   c #010101",
".  c #090606",
"X  c #03020B",
"o  c #0A050B",
"O  c #07090C",
"+  c #0D0B0B",
"@  c #0A0A05",
"#  c #110E0E",
"$  c #13110D",
"%  c #040413",
"&  c #0A0615",
"*  c #060914",
"=  c #0B0B14",
"-  c #03031C",
";  c #05091B",
":  c #0B0B1C",
">  c #0A071B",
",  c #120E12",
"<  c #140B1B",
"1  c #0B1117",
"2  c #141212",
"3  c #191616",
"4  c #14121B",
"5  c #19151C",
"6  c #1D1B1B",
"7  c #1A1915",
"8  c #211E1E",
"9  c #23221E",
"0  c #28231F",
"q  c #030324",
"w  c #090523",
"e  c #060925",
"r  c #0A0A23",
"t  c #03032B",
"y  c #0A062C",
"u  c #05082A",
"i  c #090A2C",
"p  c #0D1321",
"a  c #161323",
"s  c #1A1625",
"d  c #1B1823",
"f  c #1D1C29",
"g  c #181428",
"h  c #020233",
"j  c #0A0632",
"k  c #050933",
"l  c #0A0A33",
"z  c #03033C",
"x  c #09063C",
"c  c #0B0A3C",
"v  c #06093C",
"b  c #110D36",
"n  c #11112D",
"m  c #231F22",
"M  c #1E2022",
"N  c #252322",
"B  c #292625",
"V  c #2B2A26",
"C  c #29262B",
"Z  c #2D2B2B",
"A  c #24222A",
"S  c #312E2D",
"D  c #312F25",
"F  c #34322D",
"G  c #39372F",
"H  c #2F2C35",
"J  c #322E32",
"K  c #343233",
"L  c #393635",
"P  c #35353A",
"I  c #39363B",
"U  c #3B3A3C",
"Y  c #383937",
"T  c #2F3436",
"R  c #413F3D",
"E  c #41413C",
"W  c #040444",
"Q  c #090644",
"!  c #060843",
"~  c #0A0A44",
"^  c #03034B",
"/  c #09074C",
"(  c #06094B",
")  c #0B0A4C",
"_  c #140C48",
"`  c #040453",
"'  c #090754",
"]  c #070954",
"[  c #0A0A54",
"{  c #04045C",
"}  c #09065C",
"|  c #0B0A5B",
" . c #06095C",
".. c #110D53",
"X. c #0B1154",
"o. c #0F104D",
"O. c #1E2058",
"+. c #333544",
"@. c #3C3C40",
"#. c #34354A",
"$. c #363846",
"%. c #33354B",
"&. c #040463",
"*. c #090564",
"=. c #060863",
"-. c #0B0A64",
";. c #05046B",
":. c #09066C",
">. c #06096B",
",. c #0C0A6B",
"<. c #100B68",
"1. c #0D106D",
"2. c #141268",
"3. c #040473",
"4. c #0A0673",
"5. c #060874",
"6. c #0B0A74",
"7. c #04047C",
"8. c #0A067B",
"9. c #0B0A7C",
"0. c #07097B",
"q. c #110D7A",
"w. c #130E72",
"e. c #121277",
"r. c #423F40",
"t. c #444343",
"y. c #48474A",
"u. c #52524E",
"i. c #535354",
"p. c #5A5656",
"a. c #5C5A5B",
"s. c #575659",
"d. c #4E4B52",
"f. c #605D5D",
"g. c #5E6057",
"h. c #5B5B64",
"j. c #615F60",
"k. c #615F6B",
"l. c #646364",
"z. c #696666",
"x. c #6B6A65",
"c. c #6A676A",
"v. c #656968",
"b. c #6C6A6B",
"n. c #666669",
"m. c #716E6D",
"M. c #6E6D71",
"N. c #69697A",
"B. c #706D74",
"V. c #716E7B",
"C. c #737173",
"Z. c #797676",
"A. c #74717B",
"S. c #7D7B7C",
"D. c #7A7877",
"F. c #6F706B",
"G. c #817D7E",
"H. c #7E807D",
"J. c #84847E",
"K. c #040383",
"L. c #0A0683",
"P. c #0B0A84",
"I. c #05058B",
"U. c #0A068B",
"Y. c #0C0B8B",
"T. c #07098A",
"R. c #130D88",
"E. c #0E1086",
"W. c #13128D",
"Q. c #121283",
"!. c #050593",
"~. c #090692",
"^. c #070994",
"/. c #0C0B93",
"(. c #04049B",
"). c #09069C",
"_. c #0C0A9B",
"`. c #06099F",
"'. c #110B96",
"]. c #0E1196",
"[. c #121095",
"{. c #0505A3",
"}. c #0C09A4",
"|. c #0605AB",
" X c #0806AB",
".X c #0B0BAB",
"XX c #0807A4",
"oX c #110FAA",
"OX c #0E12A5",
"+X c #1311A8",
"@X c #0B0AB4",
"#X c #0B0ABB",
"$X c #0705B6",
"%X c #120CB1",
"&X c #6D6A84",
"*X c #686687",
"=X c #726D85",
"-X c #7D7D82",
";X c #757281",
":X c #6F6993",
">X c #726C97",
",X c #777299",
"<X c #7673A4",
"1X c #0C0AC2",
"2X c #1410C5",
"3X c #837E83",
"4X c #7E8080",
"5X c #848384",
"6X c #898686",
"7X c #85838A",
"8X c #898589",
"9X c #8C8A8B",
"0X c #888984",
"qX c #908E8E",
"wX c #8E8B91",
"eX c #8A8790",
"rX c #908E93",
"tX c #939393",
"yX c #95939B",
"uX c #99979A",
"iX c #9E9AA5",
"pX c #A09DAA",
"aX c #A3A2A6",
"sX c #BFBEC6",
/* pixels */
"9..X|.|.$X$X$X@X.X).I.~.~.T._.+X|.$X.X(.!._.(.K.3.-./ t ; x Y.$X2X#X|.oX}.).(.I./.9./ ; q ! q.I.I.T.Q.;.{ &.;.P.P.-.[ } E.].Y. .",
"W..X$X#X1X1X$X|.].Y.L.7.7./.'.`.|.$X@X XXX!.^.T.0.>.^ k w x '.#X$X$X X!._./.K.I./.3.^ q r ~ 9.K.U.K.3.>.,.;.3.7.W.-.o.X.1.>.1.( ",
"].#X1X1X$X$X|.`.I.P.P.0.7.K.U.^..X|. X{.(..XoX`.L.4.` j - W '.#X$X XI.K.E.E.7.7.P.9.( e e z 6.K./.I.K.5.>.e.P.I.W.] k k z z z w ",
"].#X1X#X#X X}.U.K.7.K.Y.P.U.T.).}..X{.{.(..X@X(.U.L.2.l q Q Y.#X@X).7.;.5.P.P.7.P.9.[ ; : ~ >.Y./.~.L.0.6.5.Y.^.W.) ; ; u q - * ",
"E.|.$X{.@XXX`.T.K.P.K.Y.Y./.~.`.(.(.(.{.oX|.|..X(.L.-.y r _ Q..X{.).T.0.0.7.8.8.7.0.( - : x ;.T._.).I.3.>.&.0.I.P.o.> e ! ] ~ l ",
"P.(.OX`.`.XX(.^.T.Y.]./.!.(.}._.+X_.!.).|.@X@X#X}.L.` t : h 5./.(.).}./.K.E.R.K.7.3.[ e > k { I.+X_.!.7.>.;.&.3.6.^ y o.9.^.W.[ ",
"0.^.XX{.{.|.|.XX^.T.K.Y.~.~.I.~./.~.I.^.!.}.@X%X}.8.` u > h =.Y.).XX{._.8.8.L.7.K.5.( % : j =./.}._._.P.6.;.;.7.-.z q ) P./.R.^ ",
"5.T.!.{..X@X@X.X`.K.>.4.L.K.7.L.P.P.K.W.OX}. X@X).8.` w 1 k =.L.'.%X}.].6.:.4.7.7.>.v ; = c 6._._._.[.8.4.&.3.3.{ x j [ W._.P.Q ",
"6.I.(.}..X X%X XT.>.| 2.} &.:.:.:.w.>.9.Q.L./.!.U.w.] u p h ,.R.Y.U.R.9.{ ` ] -.>. .k : > c w.9.E.7.9.5. .>.>.;.,.Q h } U.'.Q.Q ",
"| &.R.R.L.P.P.0.>.W t - % q q q q u h t t h h z h h - X X - h z h z h t - q - q q % X % % - h h h h h q z >.>.=.,.W u ) w.4.| j ",
"u t h v x h z z t q % C $.H +.$.$.$.%.%.%.#.#.%.#.%.+.T T P #.#.#.#.#.+.$.P P P P P P T K +.$.#.#.#.+.%.O.=.e.,.} z r - h z t % ",
"k u t t k k j z u % 1 g.G.C.G.J.4XH.S.Z.5XS.S.5X5XS.4X7X4XS.S.G.4X4X4X5X0XH.J.D.D.J.J.0XJ.S.G.5X5X8X0XsX<X^ <.,.>.x * O q y k t ",
"=.-.} ,.*.:.w.<.' q # Y U Z F F F K C K K Z Z F Z Z J K S C K S Z F K J H V F D V P J K J J C J I R t.aX,X^ &.,.-.z ; e ! ) } } ",
"9.0.q.q.8.4.8.:.} t < R E 0 @   + N V 2   . o # N Z 5 . . . . 3 Z B o   . . # Z Z 2 o o o m J 5 . = I iX>X^ :.-.` t ; l <.6.:.:.",
"7.P.6.&.>.6.6.;.] t < L x.u.      S z.          6 b.N         . f.d.          U b.@       3 m.B     V pX>X` &.{ ) t ; k -.4.*.} ",
"L.L.3.&.>.6.6.,.| t 5 F D.M.      L 6Xo         5 9XK         . C.c.          r.qX@       8 uXS     8 iX>X` ;.-./ t > y ^ } ^ ` ",
"7.0.;.>.w.,.1.2.( - , S m.B.      I 8X+         7 9XK         . C.b.          U 8Xo       8 uXK     9 yX>X^ *.-.' y % q W ) W ] ",
"3.;.;.-.,.,. .` h q , V m.c.      R 9XO       . 2 6XL           m.x.          I 6X#       6 qXS     B yX>X^ &.{ W q : i ! ! x ! ",
"&.>.;.-.-.-.{ ] c w < 9 z.m.      t.tX          # 6XL           z.z.          L 8X#       7 tXK     m yX:X^ <.` ! q > l z z ~ ! ",
">.6.;.} ,.-.{  .~ q , 0 m.C.      t.9X.       . 2 8XK   .       x.b.          K 5X#       6 qXS     8 yX:X^ &.| ~ q - y ~ / Q ) ",
"1.,.{  .{ =.*.} W q = 9 F.C.      t.9X.         # 8XL           z.b.          L 6X$       3 qXK     N yX:X^ *.] ! q w k Q / W o.",
" .2.] / ` { >.{ W q , 9 x.F.      U 9X.         2 6XK           x.b.          Y 8X+       6 qXJ     m yX>XW } ^ h - % y / ^ W W ",
"^ ^ / ! ^ } >.{ ( q 2 9 x.B.      @.rX.         + 8XL           b.b.          K 5X+       6 qXJ     N yX:Xh ^ ! q * 1 u W ^ W W ",
"] ^ z ! ^ *.:.-.X.q = 9 x.b.      @.9Xo   .     # 5XK           z.z.          L 5X@       6 qXK     9 yX=Xt W / u O : i / / W W ",
"` / W z W *.6.=.( u = 9 v.M.      @.9XO         2 6XK           z.c.          K 5X+       6 qXK     9 tX=X- Q ! q % * k ! W ( ( ",
"W ] ` ] ` w.;.` W q = 9 l.M.      t.0XO   X     # 8XK           z.z.          K 9X+       3 9XK     6 tXV.q t h h % * b o.W / ^ ",
"z W ` ;.4.>.>.=.! u = 9 x.b.      U 0XO     X   # 0XK           l.b.          Z 5X+       6 9XZ     6 rXV.- t h c ; : i v ^ W ( ",
"z ^ } =.4.w.6.{ ! u 2 9 x.M.      @.9X.         2 0XK   X       n.b.          S 6X#       3 qXJ     m wXV.- t h c e 1 i ! ^ ) ( ",
"h ` *.:.q.6.:.} W q = 9 x.M.  .   E 9XO   . X   # 0XY           l.b.          L 8X+       3 9XJ     8 rX=Xq t z ! e : l ) ^ ~ ( ",
"z  .{ :.8.;.&.{ ! e 1 7 F.F.      y.uX          # 5XY           j.v.          K G.+       3 8XK     8 rX&Xq h z z u ; k / ^ ! ! ",
"W } &.&.:.*.&.{ z - 1 V u.uXS.@.# Y aXrXb.O     # 0XK           v.x.          K 5X+       3 9XF     8 rX&Xt z ) ) u q u ! z h z ",
"^ ] } *.*.*.{ ` z q = F Z i.0Xj.Z N i.aXsX2     # 5XK   X       l.v.          Z G.+       2 5XJ     8 rX&Xq ! ^ Q w : y ! W ! ! ",
"W ` ` ` } } { [ ~ q = L L 8 2 7 N N N I 5X4     , 9XK           j.v.          Z G.#       3 6XS     8 rX&Xt W W z w : u W ' / ` ",
"W W ` Q W ` *.} ~ q , F L A 6 B M B M T -X4   X + 9XY           l.l.          K 5X+       2 9XK     8 eX*Xt W W z e X y ] { ] } ",
"W ^ ' [ } ` { { ! q = G G 9 8 m N N B Y 9X3     , 9XP   X       l.v.          J 5X+       # 5XK     8 wX*Xq W W h e > j } { &.:.",
"x W ) ' ` ' ` ' ! q o G G 9 8 8 N N B @.tX5     $ 9XP     X     j.v.          K G.+       3 9XJ     6 wX&Xt W ( v e r c <.:.&.:.",
"q t j l h j z Q h - + L F K m . 6 N 8 r.9X5     + 0XK     X     l.v.          F 3X+       3 6XJ     8 wX&Xh W ) x - > j ' } ` -.",
"% % % - w % w q % X # F B c.f.  6 N N t.eX5   X = 9XI   X       j.v.          J 5X+       2 6XK     6 eX&Xt W ` ^ y : r q t t h ",
". = % : r w y y w & o F B A.6Xo 6 B 6 K wXd X X # 9XY   X X     l.b.          Z S.#       3 5XJ     6 8X&Xt z ^ ) y : + % ; e - ",
"+ > - t q _ .._ x > o F S I b.K 2 9 9 Y 8X5 X   = 5XP   X o     a.v.          Z G.#       2 5XS     3 8X=Xq h z k w & & w b _ e ",
"w c _ / ) } <.} ) y & S F 8 8 8 8 N 9 Y 9Xd   X , 5XI     X     j.v.          Z H.#       # 5XS     3 6XV.% q u % * = & y _ ..y ",
"j o.| { } { { } Q q + S F B 8 8 8 N 0 U 9Xd X o o 5XU   X X X   j.v.          Z S.+       2 5XS     8 9XV.O * * O @ @ . & q y > ",
"y / ^ ` ` } <.{ W q = F D B 8 8 8 7 9 E tXd X X o 5XU   X X     f.v.          Z 5X+       , 5XJ     2 J.M.- q ; 1 O O * : q q > ",
"j ) ` ` } } { } Q q + F D , # # 3 6 7 6 i.d & X o 3XU   X X     a.l.          Z S.+       2 5XK     8 6XN.h / Q ! z ~ ) o.! ~ c ",
"j / ' ` ` ` ` ^ z - , 0 t.K O @   6 y.= X : = . o G.I   % X     f.l.          F G.+       # -XS     3 8X*XW { *.:.-.>.,.-. .{ ^ ",
"y ) ` ` ` ^ ^ Q h % # 3 l.V.4 A X A -Xa > > * O o G.I   X X X   l.l.          Z S..       # 3XJ     $ 5X:XW &.*.-.} *.{ ^ ^ W k ",
"j ' ] ] ` / W W k % + 3 l.;X< f X H 7Xs > r > . o G.U   % X     f.l.          C J.@       # 6XK     3 5X*X^ &.>.} ` =.{ { ` ( t ",
"h '  .` ` ` ^ ` z - o 3 l.V.r f X H 7Xd > > * X o S.U   X X     l.l.          Z 5Xo       2 5XJ     3 4X*XW ;.&.` ^ { >.>.{ ^ h ",
"x ] ` ' | ` ' ` z - = 3 p.A.4 m X J 8Xa > > * X o G.U   X X     a.l.          B S.+       2 5XZ     2 5X*Xz { { ^ W ` &.&.*.] z ",
"z ' ] ` { ` } } z u = $ f.A.r f X J 3X< ; > * X o G.P   % X     a.l.          C 5X+       2 5XS     2 3X*Xz ] ` ^ W ` &.;.:. .h ",
"x [ ] ` ` { &.` W u = $ p.V.: f X J 3Xa & ; % X . G.U   % X     a.l.          V G.+       # 5XK     2 -X*Xz ` ` ^ ^ ` ,.4.:.{ z ",
"i ^ { ^ ^ ` { ` ! q & $ p.B.: f   J 8X< > * X . o G.U   X O     p.z.          N Z.+       @ J.K     # -X*Xz ` ^ ^ W ^ { >.>.,.! ",
"i Q { ' ] { { ` W y , 2 f.A.& s X S 8Xa > ; % O o Z.P     X     f.z.          V S.+       # D.Z     2 4X&Xh ` ` ^ ^ ^ ` :.4.:.~ ",
"w ^ } } { { { { ( y = # p.Z.& s   S 8X< % * * X o Z.I     X X   p.l.          V S.@       # J.S     $ A.*Xh ` ] ` { { { >.4.&.z ",
"q W { { *.>.&.*.[ u o # f.Z.& s X K 3Xa > % * . o G.I   O X     p.j.          0 Z.+       # H.S     3 -X*Xh ` { &.;.6.>.6.9.*.z ",
"k ) { ;.:.3.3.;./ t o # p.V.> g X J 3Xa ; : * X   Z.I   X X X   p.l.  X       B G.+       @ S.K     2 -X*Xh ^ { 3.K.7.0.3.;.>./ ",
"l ' ;.8.7.3.4.;.( q o $ p.A.> g X C 3Xg r : = X   S.$.  X X     a.l.          C S.+       + S.K     1 4X*Xh ^ &.7.K.K.7.5.;.-.( ",
"x { ;.8.3.;.>.=.W q o $ p.B.& g X Z 3Xg r a : O o G.I   % X X   a.n.          B D.#       # S.K     3 -X*Xz ` &.L.K.T.3.;.&.{ z ",
"x ' >.7.8.3.>.-.z - o # s.V.& g X Z 5Xd a a 4 * X S.U   % % X   f.j.          Z S.+       . D.F     2 4X*Xz ^ &.7.U.P.0.=.{ ` v ",
"h ' &.&.-.;.=.*.^ t > 2 s.M.% d   H -Xf a g d *   3X$.  & O X   j.l.          B J.+       . D.K     # -X*Xt ` { 5.0.7.3.;.3.>.! ",
"w / ` ` ^ ' { } ] h & 1 l.A.  4   K wX4 : > 4 * X eXP   X       M.v.          Z 0X          0XZ     7 4X*Xq ^  .&.&.&.&.;.Q.q.! ",
"> k z Q h z / Q ! - O 6 t.uX-XP   7 9X7Xl.h.y.a   n.yXh.s.s.M   U tXF.i.a.K . 2 H.H.s.K 2   l.tXI   6 4XN.- h z z W W W { >. .z ",
"    X X   % - q w X . 7 A y.c.@.3 . N a.a.d.y.C + 2 i.s.d.s.P 2 O E j.i.s.t.6 . N v.i.y.Z 1 2 a.y.2 , M.N.X w ; ; e q - t h t - ",
"h.n.h.h.c.d   = & = . + ,     @ 2 $       X . + $ O         + # O       . @ O O       . + # +   @ O X 3 A O : * X O = O = * = o "
};
