/* XPM */
static char *_89d331dbc804664c21c27b2edfe9cc73tffBZA7GFaYtqrl[] = {
/* columns rows colors chars-per-pixel */
"64 62 256 2 ",
"   c black",
".  c #0000A8",
"X  c #00A800",
"o  c #00A8A8",
"O  c #A80000",
"+  c #A800A8",
"@  c #A85400",
"#  c gray66",
"$  c gray33",
"%  c #5454FC",
"&  c #54FC54",
"*  c #54FCFC",
"=  c #FC5454",
"-  c #FC54FC",
";  c #FCFC54",
":  c gray99",
">  c #ECECEC",
",  c gainsboro",
"<  c #D0D0D0",
"1  c #C0C0C0",
"2  c #B4B4B4",
"3  c gray66",
"4  c #989898",
"5  c gray55",
"6  c #7C7C7C",
"7  c gray44",
"8  c #646464",
"9  c gray33",
"0  c #484848",
"q  c gray22",
"w  c #2C2C2C",
"e  c #202020",
"r  c #FC0000",
"t  c #EC0000",
"y  c #E00000",
"u  c #D40000",
"i  c #C80000",
"p  c #BC0000",
"a  c #B00000",
"s  c #A40000",
"d  c #980000",
"f  c #880000",
"g  c #7C0000",
"h  c #700000",
"j  c #640000",
"k  c #580000",
"l  c #4C0000",
"z  c #400000",
"x  c #FCD8D8",
"c  c #FCB8B8",
"v  c #FC9C9C",
"b  c #FC7C7C",
"n  c #FC5C5C",
"m  c #FC4040",
"M  c #FC2020",
"N  c #FC0000",
"B  c #FCA85C",
"V  c #FC9840",
"C  c #FC8820",
"Z  c #FC7800",
"A  c #E46C00",
"S  c #CC6000",
"D  c #B45400",
"F  c #9C4C00",
"G  c #FCFCD8",
"H  c #FCFCB8",
"J  c #FCFC9C",
"K  c #FCFC7C",
"L  c #FCF85C",
"P  c #FCF440",
"I  c #FCF420",
"U  c #FCF400",
"Y  c #E4D800",
"T  c #CCC400",
"R  c #B4AC00",
"E  c #9C9C00",
"W  c #848400",
"Q  c #706C00",
"!  c #585400",
"~  c #404000",
"^  c #D0FC5C",
"/  c #C4FC40",
"(  c #B4FC20",
")  c #A0FC00",
"_  c #90E400",
"`  c #80CC00",
"'  c #74B400",
"]  c #609C00",
"[  c #D8FCD8",
"{  c #BCFCB8",
"}  c #9CFC9C",
"|  c #80FC7C",
" . c #60FC5C",
".. c #40FC40",
"X. c #20FC20",
"o. c #00FC00",
"O. c #00FC00",
"+. c #00EC00",
"@. c #00E000",
"#. c #00D400",
"$. c #04C800",
"%. c #04BC00",
"&. c #04B000",
"*. c #04A400",
"=. c #049800",
"-. c #048800",
";. c #047C00",
":. c #047000",
">. c #046400",
",. c #045800",
"<. c #044C00",
"1. c #044000",
"2. c #D8FCFC",
"3. c #B8FCFC",
"4. c #9CFCFC",
"5. c #7CFCF8",
"6. c #5CFCFC",
"7. c #40FCFC",
"8. c #20FCFC",
"9. c #00FCFC",
"0. c #00E4E4",
"q. c #00CCCC",
"w. c #00B4B4",
"e. c #009C9C",
"r. c #008484",
"t. c #007070",
"y. c #005858",
"u. c #004040",
"i. c #5CBCFC",
"p. c #40B0FC",
"a. c #20A8FC",
"s. c #009CFC",
"d. c #008CE4",
"f. c #007CCC",
"g. c #006CB4",
"h. c #005C9C",
"j. c #D8D8FC",
"k. c #B8BCFC",
"l. c #9C9CFC",
"z. c #7C80FC",
"x. c #5C60FC",
"c. c #4040FC",
"v. c #2024FC",
"b. c #0004FC",
"n. c #0000FC",
"m. c #0000EC",
"M. c #0000E0",
"N. c #0000D4",
"B. c #0000C8",
"V. c #0000BC",
"C. c #0000B0",
"Z. c #0000A4",
"A. c #000098",
"S. c #000088",
"D. c #00007C",
"F. c #000070",
"G. c #000064",
"H. c #000058",
"J. c #00004C",
"K. c #000040",
"L. c #282828",
"P. c #FCE034",
"I. c #FCD424",
"U. c #FCCC18",
"Y. c #FCC008",
"T. c #FCB400",
"R. c #B420FC",
"E. c #A800FC",
"W. c #9800E4",
"Q. c #8000CC",
"!. c #7400B4",
"~. c #60009C",
"^. c #500084",
"/. c #440070",
"(. c #340058",
"). c #280040",
"_. c #FCD8FC",
"`. c #FCB8FC",
"'. c #FC9CFC",
"]. c #FC7CFC",
"[. c #FC5CFC",
"{. c #FC40FC",
"}. c #FC20FC",
"|. c #FC00FC",
" X c #E000E4",
".X c #C800CC",
"XX c #B400B4",
"oX c #9C009C",
"OX c #840084",
"+X c #6C0070",
"@X c #580058",
"#X c #400040",
"$X c #FCE8DC",
"%X c #FCE0D0",
"&X c #FCD8C4",
"*X c #FCD4BC",
"=X c #FCCCB0",
"-X c #FCC4A4",
";X c #FCBC9C",
":X c #FCB890",
">X c #FCB080",
",X c #FCA470",
"<X c #FC9C60",
"1X c #F0945C",
"2X c #E88C58",
"3X c #DC8854",
"4X c #D08050",
"5X c #C87C4C",
"6X c #BC7848",
"7X c #B47044",
"8X c #A86840",
"9X c #A0643C",
"0X c #9C6038",
"qX c #905C34",
"wX c #885830",
"eX c #80502C",
"rX c #744C28",
"tX c #6C4824",
"yX c #5C4020",
"uX c #543C1C",
"iX c #483818",
"pX c #403018",
"aX c #382C14",
"sX c #28200C",
"dX c #600064",
"fX c #006464",
"gX c #006060",
"hX c #00001C",
"jX c #00002C",
"kX c #302410",
"lX c #480048",
"zX c #500050",
"xX c #000034",
"cX c gray11",
"vX c #4C4C4C",
"bX c gray36",
"nX c gray25",
"mX c gray19",
"MX c #343434",
"NX c #D8F4F4",
"BX c #B8E8E8",
"VX c #9CDCDC",
"CX c #74C8C8",
"ZX c #48C0C0",
"AX c #20B4B4",
"SX c #20B0B0",
"DX c #00A4A4",
"FX c #009898",
"GX c #008C8C",
"HX c #008484",
"JX c #007C7C",
"KX c #007878",
"LX c #007474",
"PX c #007070",
"IX c #006C6C",
"UX c #980088",
/* pixels */
"8 8 8 7 8 8 8 8 8 8 8 8 7 8 7 8 8 8 8 8 8 8 8 8 8 8 8 8 8 7 8 8 8 8 8 8 8 8 8 8 7 8 8 8 8 8 8 8 8 7 8 7 8 8 8 8 8 8 8 8 8 8 8 8 ",
"8 8 7 8 8 8 8 8 8 8 8 7 8 7 8 8 8 8 8 8 8 8 7 8 8 8 8 8 7 8 8 8 8 8 8 8 8 8 8 7 8 8 8 8 8 8 8 8 7 8 7 8 8 8 8 8 8 8 8 7 8 8 8 8 ",
"8 7 8 8 8 8 7 8 8 8 8 8 7 8 8 7 8 8 8 7 8 7 8 7 8 8 8 7 8 8 8 8 7 8 8 8 8 8 7 8 8 8 8 7 8 8 8 8 8 7 8 8 7 8 8 8 7 8 7 8 7 8 8 8 ",
"0 0 6 8 8 0 0 0 0 0 0 $ 0 $ 0 0 0 0 0 0 0 0 $ 0 0 0 0 0 $ 0 0 0 0 0 0 0 0 0 0 $ 0 0 0 0 0 0 0 0 $ 0 $ 0 0 0 0 0 0 0 0 8 8 0 0 0 ",
"L.L.6 8 7 0 g g f d d g h h h h h g g h g g g g g g g h h k k h h g g f d f g g g h k k l l l l l h g g f g h g h k 6 7 8 0 L.L.",
"mXmX5 8 8 $ g a a a a O d f d d d O a a O s d d d d s d d f f f d d s a p p O s s d g h g g g g g f d s O O O O O O 5 8 8 0 L.mX",
"mXmX5 8 7 0 d p a s s s s d d d s a a a O d d d d d d d d d f f d f d O p a O s d d g h g f f d f f d d s O a a p p 5 8 8 0 L.mX",
"mXmX6 7 8 0 d p a d d d s O s d s O O O s d d d d d d d s s f f f f f d a a a s s d f f f f d d d d d d d O a p i i 6 8 7 0 L.mX",
"mXmX6 8 7 0 d p a d h h h h h h h h h h h h h h h h h h h h h h h h h h h h h h h h h h h h h h h h h h h h i i i p 6 8 8 $ L.mX",
"mXmX5 7 8 0 f p a s f uXiXiXiXiXiXuXpXiXiXpXpXkXaXaXaXkXkXkXkXaXaXkXaXiXyXiXpXpXpXpXpXpXpXpXaXkXpXpXpXpXkXn i i i p 5 8 7 0 L.mX",
"mXmX6 8 8 0 f O O d f iXiXpXpXiXpXiXuXiXiXaXkXkXkXkXkXkXsXkXkXkXkXkXpXpXuXyXuXpXpXaXpXpXpXpXkXpXaXaXpXkXkXn a p p a 6 7 8 0 L.mX",
"mXmX6 7 8 0 f s d d f iXiXpXpXpXaXiXiXiXkXkXkXkXkXkXkXsXsXkXsXkXkXkXkXpXpXtXyXpXkXaXpXaXpXpXaXpXpXpXkXkXkXn p p p p 6 8 7 0 L.mX",
"mXmX6 8 7 0 g d f d f aXpXpXiXiXpXuXpXaXkXkXe kXkXkXkXkXiXyXuXuXuXuXiXaXaXuXrXiXaXaXpXpXpXiXpXpXpXpXkXaXkXn p i i p 6 7 8 0 L.mX",
"mXmX6 8 8 0 h f f d f pXpXuXiXiXiXpXkXkXsXsXaXaXkXpXiXtXwX9X8X6X4X1X3X6XqXuXuXyXpXpXpXiXpXpXpXpXpXpXpXaXkXn i i i p 6 8 8 0 L.mX",
"mXmX6 8 8 $ h d d s f pXiXuXpXiXpXkXsXsXkXsXpXpXiXuXtXeX9X6X4X3X1X,X,X>X>X3XwXuXiXaXkXpXpXaXaXpXaXpXkXkXkXn p i p p 6 7 8 0 L.mX",
"mXmX6 8 7 0 h s O a f pXiXiXuXpXkXkXL.e kXkXpXiXuXtXrXwX6X5X3X1XB ,X>X,X>X,X,X7XyXpXkXpXaXaXpXkXpXkXaXkXkXn a p p i 6 8 7 $ L.mX",
"mXmX6 8 8 $ g s a p f pXuXiXiXpXkXkXsXkXaXpXuXyXyXyXrXwX6X5X3X1X,XB B >X,X,X,X,X3XeXpXaXpXpXpXpXpXaXkXpXkXn s a p p 6 8 8 0 L.mX",
"mXmX5 8 8 0 g O a p f pXuXiXaXkXkXkXkXaXkXpXuXuXuXyXtXwX7X3X1X1X,X>X,X,X>X>X,X,X>X1XeXkXpXpXpXkXpXpXaXaXkXn d d s s 5 8 8 0 L.mX",
"6 6 6 8 8 0 f a p i f pXiXiXkXsXkXkXkXkXaXpXiXiXuXuXtXwX7X3X3X1X,X,X,X,X>X>X>X,XB ,X1XeXpXpXaXkXpXpXpXkXkXn f g f d 6 8 7 0 6 6 ",
"8 8 8 8 8 0 d p p i f iXiXiXaXsXkXkXkXsXkXpXyXyXuXyXyXtX8X4X3X1XB ,XB ,X>XB B ,X>X>X>X,XyXpXpXsXaXaXaXkXkXn f g f d 5 8 8 8 8 7 ",
"8 7 8 8 8 0 d i i i f pXiXpXkXkXe aXkXsXkXpXyXuXyXuXyXtXqX3X3XB ,X>X,X>X>XB ,X,X>X:X:X>XqXpXaXkXpXpXpXkXaXn s f f d 6 8 8 7 8 8 ",
"0 0 0 $ 0 0 d i i u f iXuXpXe sXkXkXsXsXkXiXyXyXuXuXyXtX6X,X,X,X>X,X>X>X>X>X>X,X>X:X:X:X3XyXpXaXpXpXpXpXaXn a d f f 5 0 0 0 0 0 ",
"f f d d d s O u y y f iXpXpXsXe sXkXkXsXkXiXyXyXiXiXuXqX3X4X6X4X7X7X3X,X1X>X,X,X1X3X4X3X,XwXpXkXaXpXaXaXkXn a s f f j j h g g f ",
"i i i i u u y y y y f iXuXpXsXsXsXsXsXkXkXiXyXyXiXiXiXwXwXeX3X,X1X4X3X7X0X,X>X3X0XeX9X4X3XqXpXpXpXaXpXpXkXn O s d d s s O a p i ",
"i i i i i i y y y y f uXyXuXkXsXsXsXsXkXkXiXyXyXiXiXuXtXuXqX9X9X6X4X6X9XwX,X:X3XqXwXqX8X3XeXpXpXpXpXpXpXpXn s s s O s O a a p i ",
"i i p p p i i u u u f uXuXuXkXsXsXsXkXkXkXpXiXuXpXiXrXyXtXrXwXeX3X1X3XeXeX3X:X,X3X6X7X4X6XeXiXaXpXpXpXpXaXn s O a a a a p p p i ",
"i i p a a a p p i i f uXyXuXpXsXkXkXaXkXpXpXiXiXpXyX9XrXrX8X6X1X,X>X1XwXtX8X,XB ,X,X>X>X3XwXiXaXpXpXaXpXpXn a a p i p p p p p p ",
"p p p O s O a a a p f yXyXyXaXkXaXpXkXaXpXpXiXiXiXtX6XeXeX4X1X>X>X>X1XqXrXrX4X,X>X>X:X:X>X8XiXiXpXpXpXpXpXn p p i u i p p i p a ",
"a a p a s O O s d s f uXyXyXpXkXkXaXpXpXpXuXiXpXiXtX7X6X7X4X3X,X>X>X4XqXyXyXwX1X>X:X:X:X>X7XiXpXpXpXpXkXpXn u u u y y i p p p p ",
"a a a a O s s d d d f yXyXiXaXpXpXpXpXpXpXiXiXiXuXyXqX5X1X1X1X,X,X1X3XeXuXuXtX6X1X:X=X:X>X7XpXaXpXkXpXpXpXn u u u u y u p p p p ",
"a s d d s d f d d s f yXyXuXaXaXpXpXpXpXiXiXuXuXuXiXtX7X,X>X:X>X,X,X3XtXuXyXyX9X1X>X:X>X,X8XiXpXpXpXpXpXpXn u y u u i i i p p p ",
"a d g g d d f d s s f yXyXyXiXaXaXpXiXiXiXiXuXuXiXuXyX0X1X,X1X1X,X,X8XiXiXuXuXeX3X1X:X>X1XeXpXaXaXkXkXpXaXn u u u u i i i p a a ",
"O s f h g d d s O O f yXtXyXuXpXpXpXaXiXpXiXiXuXiXuXyXqX6X4X4X2XB >XqXpXyXpXiXqXeX4X>X>X1XrXpXaXpXaXkXkXkXn i p i i p a p a s d ",
"d d d f g f s s O O f yXtXyXyXiXpXpXpXiXiXiXuXuXiXiXtX9X7X0X7X3X,X:X6XuXpXpXuX8XyXqX,XB ,XeXpXaXaXaXkXkXkXn p O a a O s s s d f ",
"f f d d f f d O O O f uXtXtXtXyXiXpXyXuXpXiXuXyXiXiXyX8X7X8X7X3X,X,XwXiXpXuXiXiXyXuX3X>X,XrXpXkXpXaXkXsXaXn a s s s s s s d s d ",
"d d d s d g f s s s f yXtXtXtXtXyXuXiXiXpXpXuXuXuXiXuX9X7X7X5X3X3X7XtXaXpXiXuXyXrXeX1X>X1XyXpXaXaXaXaXkXkXn O s d d d d d f d d ",
"s s s d d g h g d s f yXtXyXrXtXtXyXuXpXpXaXpXiXuXiXuXwX7X7X4X3X7X7X9XrXtXeX9X6X7X3XB ,X3XiXaXpXkXkXaXaXpXn s s d d f f g f f d ",
"O s d d f f h h f s f tXtXrXtXtXeXrXrXuXaXpXpXiXiXiXuXeX8X8X4X3X7X3X3XqXtXeX7X4X5X4X1X,X4XiXaXaXkXaXkXkXaXn s s s d d f f d d s ",
"O O s f f f g h g d f rXrXtXtXeXeXwXwXuXpXpXiXpXiXiXiXrX9X9X6X3X3X3X6XwXwX4X2X2XB ,XB ,X7XpXpXpXaXkXpXaXkXn s s s O a O d s s d ",
"s s d f f f f g h f f rXrXtXrXrXrXwXwXuXpXiXpXpXpXiXiXyXwXrXqX4X6X7X7X7X8X4X2XB B ,XB >XqXpXpXpXaXpXaXkXkXn s O a a a a O s d f ",
"5 6 6 8 8 0 g f g g f uXtXyXrXrXwXwXwXiXpXiXpXpXiXiXiXyXeXwXrX9X6X6X6X6X6X4X4X3X1X,XB ,XeXpXpXaXaXkXkXaXaXn s a p p 6 6 5 6 6 6 ",
"8 8 8 8 7 0 h d g h f yXtXtXtXeXwXwXeXiXaXiXpXpXiXpXpXuXyXrXtXeX7X6X6X6X6X6X4X2X1X1X,X4XyXaXpXpXaXkXaXkXkXn s a p i 6 8 7 8 8 8 ",
"8 7 8 8 8 $ h d f g f yXtXtXtXrXwXeXrXuXpXiXiXiXpXiXiXiXiXtXyXtXrX8X8X8X6X5X2X,XB 1X1XwXpXkXkXkXkXkXkXkXkXn O p i u 5 8 8 8 7 8 ",
"0 0 5 8 7 0 k f f f f yXrXrXeXrXrXrXyXyXrXyXyXuXuXuXiXuXiXyXyXyXtXtXeX0X7X4X1X1X1X1X9XyXaXpXpXpXkXkXkXkXkXn p i i u 5 8 7 0 0 0 ",
"L.L.6 7 8 0 k g f f f yXyXrXrXrXyXpXuXyXrX9XwXtXuXuXyXuXuXyXyXyXyXtXtXrX0X7X5X5X4X9XyXpXpXpXaXpXkXkXaXaXkXn u i i u 6 7 8 0 L.L.",
"mXmX6 8 7 0 k f f d f yXyXtXrXyXkXsXpXyXeXqX6X4X8XyXuXyXyXtXrXrXtXrXrXeXqX7X4X3XqXuXpXpXpXaXkXaXkXkXaXkXkXn y u i i 6 8 7 0 L.mX",
"mXmX5 7 8 0 h d d s f yXyXyXyXpXaXkXkXyXwXqX4X3X3X1X4X9XrXtXwX9X8X9X7X6X4X1X1X5XuXpXaXaXaXaXkXkXkXkXkXaXkXn y y u i 5 7 8 0 L.mX",
"mXmX6 8 8 0 g d d s f yXyXiXpXsXkXkXkXaXrX7X4X1X1X,X,X:X>X3X7X4X4X3X2X1XB ,X,X>XyXpXaXpXkXkXkXkXaXkXkXkXsXn y y y i 6 8 8 0 L.mX",
"mXmX6 7 8 0 h s s s f uXuXpXsXL.kXkXkXkXpX9X1X,X,X>X:X:X=XJ =X>X3X1X1X,X>X:X=X2 uXpXpXpXaXpXkXaXkXkXaXkXkXn y y y u 6 7 8 0 L.mX",
"mXmX6 8 7 0 h s a a f pXaXcXkXL.e sXsXkXaXiX6X>X>X:X:X=XJ =XH H =X>X1X>X>XH H 2 iXpXaXkXkXkXkXkXkXsXkXsXkXn i y y y 6 8 7 0 L.mX",
"mXmX6 8 8 0 f a i i f L.cXsXe L.kXsXkXkXL.kXuX7X:X:X=XJ J H H H H H J 3XH G G 2 iXaXpXkXaXkXsXsXaXsXkXkXsXn p i u y 6 8 8 0 L.mX",
"mXmX6 8 8 $ d p i i f e e kXsXe kXsXsXL.kXkXaXiX8X=X=XH J H H H H J H 5 8XG G 2 uXpXkXaXkXkXaXsXkXpXkXkXkXn a a p i 6 8 8 $ L.mX",
"mXmX6 8 7 0 d i p i f e sXe kXe L.sXsXkXkXaXaXpXyX9X=XH H H H H H H H wXuX2 G 2 pXuXpXkXaXkXaXkXkXkXkXkXkXn s a a p 6 8 7 0 L.mX",
"mXmX6 8 8 $ d u i i f b b b b b b b b b b b b b b b b b b b b b b b b b b b b b b b b b b b b b b b b b b b s O a p 6 8 8 $ L.mX",
"mXmX5 8 8 0 d u i i i u i i p p p a O d f g f f f d s a p i i i i i i i a a a a p i u i i i i p a a a a O s d s O a 5 8 8 0 L.mX",
"mXmX6 8 8 0 d i u i i i i p a a p p a s f g f d d s O p i u u u i i p a O s s O a i u u i p p a O a a O O s d d s O 6 8 8 0 L.mX",
"mXmX5 8 8 0 g i u u y u p O s s O a O s d f d d s a a p i u u i a a s s s d s O O a i i p p a a O s s s s s d d s s 5 8 8 0 L.mX",
"mXmX6 8 8 0 f i u y y i a s d d d s s s s d d s a p p i i i i a s d d s s d d d d s O a p p a s s d f d s s s s O O 6 8 8 0 L.mX",
"6 6 5 8 8 0 6 5 6 6 6 5 6 6 5 5 6 6 6 6 6 6 6 6 6 5 6 5 6 5 6 6 6 6 6 6 6 5 6 6 5 5 6 6 6 6 6 6 5 6 6 5 5 6 6 6 6 6 5 7 7 0 5 6 ",
"8 7 8 8 8 8 7 8 8 8 8 8 7 8 8 7 8 8 8 7 8 7 8 7 8 8 8 7 8 8 8 8 7 8 8 8 8 8 7 8 8 8 8 7 8 8 8 8 8 7 8 8 7 8 8 8 7 8 7 8 7 8 8 8 ",
"8 8 7 8 8 8 8 8 8 8 8 7 8 7 8 8 8 8 8 8 8 8 7 8 8 8 8 8 7 8 8 8 8 8 8 8 8 8 8 7 8 8 8 8 8 8 8 8 7 8 7 8 8 8 8 8 8 8 8 7 8 8 8 8 ",
"8 8 8 7 8 8 8 8 8 8 8 8 7 8 7 8 8 8 8 8 8 8 8 8 8 8 8 8 8 7 8 8 8 8 8 8 8 8 8 8 7 8 8 8 8 8 8 8 8 7 8 7 8 8 8 8 8 8 8 8 8 8 8 8 "
};
