/* XPM */
static char *_17ef2a4c4884bc3af2275ac94486f22IexYZw23cKUfEHmH[] = {
/* columns rows colors chars-per-pixel */
"64 64 251 2 ",
"   c #010101",
".  c #0C0B0B",
"X  c #090707",
"o  c #110D0D",
"O  c #1A0607",
"+  c #16140D",
"@  c #120E12",
"#  c #141314",
"$  c #1A1619",
"%  c #1C1B1C",
"&  c #1A1717",
"*  c #0E1211",
"=  c #260505",
"-  c #370505",
";  c #25150A",
":  c #221D1D",
">  c #291916",
",  c #371616",
"<  c #220F11",
"1  c #1C201D",
"2  c #26221D",
"3  c #39291A",
"4  c #1C1F21",
"5  c #221F21",
"6  c #351F21",
"7  c #1E2322",
"8  c #242323",
"9  c #292625",
"0  c #2C2C2C",
"q  c #282828",
"w  c #322E2E",
"e  c #382624",
"r  c #36342C",
"t  c #2C2E30",
"y  c #322E32",
"u  c #343334",
"i  c #3A3536",
"p  c #3C3B3C",
"a  c #383838",
"s  c #2E3233",
"d  c #4A0607",
"f  c #530203",
"g  c #5C0303",
"h  c #590A0A",
"j  c #481818",
"k  c #581716",
"l  c #52110F",
"z  c #640303",
"x  c #6B0303",
"c  c #6B0A0B",
"v  c #67080A",
"b  c #740303",
"n  c #7C0403",
"m  c #7C0A0C",
"M  c #75080A",
"N  c #7A0E10",
"B  c #671817",
"V  c #781518",
"C  c #6F1010",
"Z  c #493717",
"A  c #732F15",
"S  c #771E20",
"D  c #492625",
"F  c #572A29",
"G  c #423D3C",
"H  c #473836",
"J  c #583A38",
"K  c #4B352E",
"L  c #772626",
"P  c #663534",
"I  c #783938",
"U  c #692626",
"Y  c #3A413D",
"T  c #764813",
"R  c #42413D",
"E  c #574F2B",
"W  c #6A522B",
"Q  c #726931",
"!  c #49481A",
"~  c #3E3E40",
"^  c #443E41",
"/  c #7C3941",
"(  c #3E4142",
")  c #444344",
"_  c #4C4B4B",
"`  c #474748",
"'  c #524D4D",
"]  c #594748",
"[  c #56524C",
"{  c #514E51",
"}  c #4D5151",
"|  c #545354",
" . c #5C5B5C",
".. c #595757",
"X. c #4E514E",
"o. c #674848",
"O. c #615D5E",
"+. c #695958",
"@. c #784F49",
"#. c #5E6057",
"$. c #67635B",
"%. c #746C50",
"&. c #5D5E60",
"*. c #615F61",
"=. c #775C60",
"-. c #5F6263",
";. c #646364",
":. c #696669",
">. c #6C6B6C",
",. c #686766",
"<. c #736A6A",
"1. c #73716E",
"2. c #7B7769",
"3. c #6F6D71",
"4. c #716E71",
"5. c #7D6F73",
"6. c #747373",
"7. c #797475",
"8. c #797679",
"9. c #7C7B7C",
"0. c #777877",
"q. c #6E706E",
"w. c #840302",
"e. c #8B0303",
"r. c #88090A",
"t. c #940404",
"y. c #9B0404",
"u. c #940A0B",
"i. c #9C0B0C",
"p. c #9A0709",
"a. c #880D12",
"s. c #9B1616",
"d. c #8E120F",
"f. c #A50505",
"g. c #A20C0C",
"h. c #AB0B0B",
"j. c #AA0805",
"k. c #B70B0A",
"l. c #A6110A",
"z. c #B7140B",
"x. c #A90E12",
"c. c #B60E13",
"v. c #AC1313",
"b. c #A61718",
"n. c #B41314",
"m. c #BC1414",
"M. c #B91919",
"N. c #8B3417",
"B. c #B4211E",
"V. c #AB1D22",
"C. c #8F2D2E",
"Z. c #B62929",
"A. c #B02E2D",
"S. c #9D1920",
"D. c #C50B0C",
"F. c #C71716",
"G. c #D61A1A",
"H. c #C8110F",
"J. c #D0211D",
"K. c #D31D22",
"L. c #D62625",
"P. c #C52727",
"I. c #E82121",
"U. c #AC4F2A",
"Y. c #A25926",
"T. c #CB6D2E",
"R. c #8E3F43",
"E. c #834547",
"W. c #96494A",
"Q. c #995758",
"!. c #835856",
"~. c #AD5252",
"^. c #8F6B56",
"/. c #AD645D",
"(. c #A85E62",
"). c #876866",
"_. c #817E7D",
"`. c #887976",
"'. c #927775",
"]. c #9A6A67",
"[. c #AB6E6C",
"{. c #CF7171",
"}. c #C25C5A",
"|. c #7C847E",
" X c #928C5A",
".X c #85847A",
"XX c #928B67",
"oX c #A69C74",
"OX c #ACAD6F",
"+X c #B0AC5A",
"@X c #C5B56F",
"#X c #D38074",
"$X c #D1CB6F",
"%X c #EDD577",
"&X c #7F7D80",
"*X c #817D81",
"=X c #B17D81",
"-X c #C17B82",
";X c #7F8080",
":X c #848384",
">X c #8A8689",
",X c #8C8B8B",
"<X c #898786",
"1X c #938D8C",
"2X c #97938C",
"3X c #928F91",
"4X c #949393",
"5X c #999695",
"6X c #9C9B9B",
"7X c #999898",
"8X c #8E8D90",
"9X c #A09C9C",
"0X c #AF8A88",
"qX c #A2A29C",
"wX c #B2AF89",
"eX c #A19EA1",
"rX c #A4A3A3",
"tX c #ACABAB",
"yX c #A9A7A7",
"uX c #B2AEAB",
"iX c #B7B4AC",
"pX c #B5B3B4",
"aX c #BCBABB",
"sX c #B9B5B6",
"dX c #AFAFB0",
"fX c #9DA0A2",
"gX c #D19090",
"hX c #DBA19C",
"jX c #C1BDBD",
"kX c #D0A8AB",
"lX c #EAB7B6",
"zX c #DFA09F",
"xX c #D6C586",
"cX c #D8D192",
"vX c #EDD894",
"bX c #F4E693",
"nX c #C8C6B4",
"mX c #FFF4B3",
"MX c #C3BFC1",
"NX c #C4C2C3",
"BX c #CCCACB",
"VX c #C9C6C6",
"CX c #DAD8D8",
"ZX c #D3CFCD",
"AX c #E1DEDA",
"SX c #FEFDDA",
"DX c #F2F1CB",
"FX c #E1DFE0",
"GX c #EAE7E7",
"HX c #FAFAF7",
"JX c #F7F4EB",
/* pixels */
"% ^ u y 9 o 5 5 # o i 5.dXjXpXMXtXuXNXsX9X9XpXtXiX:Xr 0 >.1XqXaXVXqX[ 1.9X5X5XsXyX[ R ..&   % 2 w 2 X i X.q r w R i 9 9 0 : 0 % ",
"q y ~ ) ..w 6 $ 5 @ 5 4XsXdXsXyXjXCXuXeXjXjXrXuXyX<X .: | uX,X5X9XtXpXsXiX7XyXsX9._ w 9 % r O...X.:   _ _ q 0 w 6.w   8 p w ' 2 ",
"8XfXyX7X>X4XtX3X7X^ $ >X8X&XeX*X8.5X5X1X1X1XqX3X,X..i . 0 jXyX_.:X1X4X5X<X0.9..X6.) % * % 9.FXCXsXfX<X,X9.0.7.1.1.$...1.rX7XaX .",
"MXGXCX6X5XpXpXpXpX' o &X6X>X<.*.O.O.4.4.,.7.9.9.:X_ u   y aXuX8X>X7.9.7._.>...>.>.a 2 1 [ ^ 6XBXsXsXnXaXaXnXVXiXsXaXpXBXVXjXGX .",
"eXtX,X0.2.<X1X,.-.1 X ,..X,.Y _ [ <.$.+.<.$.$.1.<.R 2   & 4XaX4X`. X|.%._.`.$..XE s + # 2 & iXuXqX2X,X2XiXiXuXqXiXuXuXiXuX4X3Xu ",
"*.4.$.%.wXAXSXAXnX X%.oX%.%.oX X X X X XXXXX X X^.Q W Z Z  XcXOX X+X XQ  X X XOX+XQ ! ! ! Q OXwXoXXXXXoXoXoXwXnXnXnXqX9.9.6.8.p ",
"<.$.2XAXHXHXSXSXmXDXmXcX+XoXbXvXbXvXvXcXcXvXcX$X$XxXxX@XhX$X$X$X$X$X$X%X$X%X%X%XbX%X%X%XbXbXvXmX@X@XvX%XcXbXDXSXSXHXSXVX*X6.>X^ ",
"<.2 XXHXDXDXSXDXcX@X+XY.Q W A U.N.N.N.T A T T A A W T Z ! E ! E E Q Q T N.Y.Y.Y.Y.T.T.T.T.T.T.T.A ^.+X$X+X$XcXDXSXSXHXVX6.*X>Xu ",
"2.[ ! 2.XX%.%.[ Y + ; Q %.d n l.t.w.d.d.d.m m d.s.S.M ^.H %.& O . 2.E ].U.r.i.l.l.z.z.l.f.k.j.j.m P W Q E Q Q %.%.|..X.X1.,X8Xu ",
"q.0.$.#...R 2 2 X X & .X'.B s.z.n.j.z.P.F.B.z.z.M.m.b.lX$..X9 X X 2X$.2X{.m.G.F.F.l.B.P.M.P.z.H.Z.(.'.*.<.<.| ..$.[ ..1..X,X>X) ",
"_ |  .,.q.$.R 9 + 1 + R @.A v.J.F.z.m.D.H.D.F.H.F.J.Z.lX>.-.$ .   .XO.'.{.K.K.c.A.U.W.C.A.}.s.P.P./.`.:._._.|.,X<X:.*...` | :.t ",
"q y u R X.R i 9 + & * Y !.S t.f.m.n.f.f.z.l.z.F.z.D.d.lX7.&.@ X   9.+.'.}.j.Z.U.R.0X2 3 0XQ.C.r.Z.I G } { ) ` Y w 9 $ o % 8 Y 8 ",
"@ @ $ 4 % % w : % 1 7 Y %.N.u.t.x.c.p.f.j.c.D.H.H.k.e.lX<.^ > X   7.,.'.~.y.A./.@.+.0 % 5.o.U d.Z.l < 7 1 1 . . . . # & # . # * ",
"@ $ .   . % & X o & s s @.C.s.e.p.c.x.h.h.m.m.D.D.H.i.lX5. .5 O   1.<.'.{.j.A.k O O.X.@ & O B s.A.B + . * 1 7 2 0 X.& r t # & . ",
"$ $ $ . % % @ + o 2 s q K C.s.e.t.c.c.x.j.f.y.h.k.k.u.gX<.*.#     ;.>.`.{.y.A.C.W 1XH X R D L b.V.L J t 7 X.X.9 & Y # 1 a a a 2 ",
"| :.3.&X<. . .9.,X_ ` ) D V s.e.e.x.M.x.f.f.f.m.c.f.b zX<.8.8     :._.<.{.t.v.U.R.].H e P k a.Z.V.h & 7 ` ` _ X.#.X.r 1 | q.9.a ",
"*XpXdXpXdX4X6XMXCX>X( _ > S Z.u.w.i.M.m.m.z.l.v.e.C.[.pX^ 4Xp     >.,X] lXb.f.l.A.{.zX[.U c r.P.V.l @ :.BXrXdXZXBXtXtX2X,XqXdXX.",
"&X&X&X&X*X .5.6X6X_ 7 _ > B V.i.n w.g.m.z.z.l.S./.[.=Xy ~ >X:.} ..:X;.y ).oX}.s.b.Z.S.V v v s.P.V.d H sXnX6X7XfX7X|.qXyX<Xq.dX#.",
"*.*.3.3. .{  .*X3.% q X.3 h b.b.n w.t.n.m.g.C./.=.^ a 3.dXdXNX..>.yX*X<.r E ).gXV.b.V.b v v V.L.Z.- [ BX2XR 6.|.|.<X6.q.6.,.7X( ",
":.&X3.3.3.8.&X>Xq.7 * s > h b.d.n n t.v.b.N.[.K i *.fXFXHXZX^     yXJXMX,X| 0 =.zXA.r.M z m n.H.b.d >XsX;.X.6.0.:X,X6.q.q.q.8XY ",
">.*X8.4.4.:.>.*XO.% X a O B s.w.z g m s.M [.=.u _ MXJXCX>X8   # :XVXJXHXGXtX*.p ).zXh h z n i.y.N j >XyX<.,X<X0.|.>.6.6.|.0.<X` ",
":.*X*X*.*. .;.*._ : X # O l ~.~.C.U B L -X!.9 _ rXGXpX*.    ..yXFXHX5X3.BXJXBX3.i =.].- d R./.gX=X= <.9X9.<X6.6.9.>.;.>.0.0.<Xr ",
":.:.*.:.;.;.6.*.G & o 9 6 < D J ] e > D +.0 r 4XFXBX6..   $ sXGXZX6X.   p NXHXrX| 9 ^ 6 D ).o.4X3X$ 8.7X1.,.0.0.0.q.6.:X|.q.<Xu ",
":.&X*.*.O.>._.:.Y 1   _ $.] 4X|.-.~ Y 1.6.|.0.ZXVXCXVX3X#   % :X .        4 MXGX4.) $ %  .dX8.>X5.. >XpX:X7.0.0.q.9.6X3X0.,.0.Y ",
"9.8X6...:.&X&X4.{ % o { 1.a [ ( 4 $ 7 a p _ 9.6.i dXGXBXtX8   X     | eX#   8 ZX5Xi 5 $ ) 3.) @   @ ..:X>X:X6.9.0.0.0.q.0.,.>.u ",
"&X>X8.8.:.:.&.{ ^ t @ _ ,.%               i  .#   $ 2XCXGX>X#     ^ CXJXtXu   5 <.#               # 8 R X.) ..;.>.>.,.>.0.6.|.a ",
"i *.:.*.~ t 4 @ 4 $ @ :.9.9 0 y ) p % #   G >XMXp     >X4X8 X 4 X X :XGXGXjXw @ 4.0   X   y } &.` 9 y $ % 8 0 a ( ) `  .;.;.0.0 ",
"$ 5 % @ .     @   @ 9 *.1.r :X8XrX,XR 8 p 5.3.ZXGX7.    .   { MX6.. X 4.ZXCXpXMX9X` 8 *X:X&X6Xq.` p u # : . . * & 1 1 t ) ) ..% ",
"$ @ X . $ $ ~ ~ y ( ( 3.&Xe o.] [ ] e > ] % ^ :XJXCX6.    $.BXFXFX*.    { BXZXsX:.5 > 9X.X=.0X*Xo.< @ 8 0 %   X & & .   X % q . ",
"~ y y :.4X8X4XyXrX7X} | :.K (.(./.Q.I D @.o.^ <.1XGXZX6. .VXJXVX:.%   . 8.MXBX;.` , E.gX{.{.{.~.C.O 8 4.0. .: 8 Y & s a 0 & X X ",
"5 _ *XyXrX8X8X8X3XfX&X~ +.k r.e.w.n x g - I o.^ <.1XGXVXaXBXNX`     q 3XVXBXq.p 6 j S.c.G.D.D.K.r., 4XBXVXpX4X-.} } tXpXdXq.X . ",
"a 3.dXtX&X3.:.3.4.8X:.s o.c i.h.f.p.n x z f [.o., { 8.BXBXFX .    >.FXFXtXq.a q ^ S i.I.I.G.G.L.r.j sXaX9.fXaXaXNXVXaXfX,X| & # ",
"t 8XyX8X:.4.:.3.6. .u y o.V u.g.f.i.w.c v z B [.).^ t 3.7X6X4.y  .BXsX6X..) u ] Q.a.M.G.I.I.I.L.m = 5XyX,.8.7XtXtXrXfX4X-.q 8 1 ",
"{ yX8X*.3.6.:.&X8.` 4 p +.B r.t.i.i.w.x c x z g R.'.<.a p <X*.u G :.:.y q | o.!.g e.n.G.I.I.D.m.M , 9XtX>X9.0.:X0.&X6.0...s a 8 ",
"*.dX3X3.8.*X*X*X3.) # 9 o.B e.p.i.g.e.b z g z v v S ].oXp ;.5      .;.H ).Q.V g x f.D.L.K.D.G.L.r., 2XpX9.7.6.q.6.6.,X:X..a 0 % ",
"^ 3X>X6.6.>X*X6.3.) X 9 ] B e.i.p.p.u.n z g z M a.M d lX7.` @     ) ` ^ Q.g x b r.v.F.K.G.G.G.L.d., 3XpX0.;X0.0.6.>.>X:X#.) t . ",
"y 4.*X8.&.*X:.3.3.~ @ u o.B d.p.x.i.b.a.M z v m a.r.x hX<.^ @     ^ ^ ^ @.z m n u.P.K.I.K.G.F.L.a.J yX7X;.| ;.:.6.>.0.:X,.Y q X ",
"y 8.&X4.:.&X&X:X:.^ # 0 J V u.t.p.p.u.t.n z h x a.M x zX+.y @     ^ ` ^ R.g M w.p.c.F.K.K.H.G.L.d.F 9. .) p ^ { X.` _  .} ` q X ",
"5 &X&X:.8.*X8.<X9.{ 4 8 K B r.y.p.p.u.i.n z f g M n x gX+.p %     ) s ] E.z b e.v.K.H.H.G.D.H.J.d.- y 0 9 y 8 % % & * % 8 u 0 . ",
"5 &X*X .{ 8.&X*X*X| $ : K B r.y.g.p.u.r.n z f g M b x (.i ' 9     ~ 0 ] I g n i.n.F.H.F.D.D.F.F.d., # $   X .   * # 8 q X % 7 X ",
"5 *X&X^ ..*.*.5.:X| & + J U e.y.x.p.e.w.r.z f h z x z Q.y _ 2     0 t i I f r.x.v.k.H.F.k.D.D.F.u.W 0.,.X.s ` >.9.:X,XrX-.  a 8 ",
"5 *X&X:.&X3.&. .>.| 8 X D U r.y.g.u.e.r.m x g g z x g ^.w ) %     0 q ] I z w.i.c.m.D.k.j.h.k.c.e.].ZXBXBXjXMXMXaXpX7XfX9.% 0 a ",
"5 *X*X*X&X*.*.*.,...% & 3 k d.t.p.u.e.e.w.M v g v z h [.H 8 X     u 8 ] S x r.g.f.k.k.j.h.f.F.n.r.Q.6XdXaXpXpX6X7XfX7X:X..0 8 & ",
"~ *X3X&X4.*._ 8.:X| % 0 > l r.u.p.t.e.w.e.a.c z v z g 0X[ % .     _ t =.I M u.i.f.k.k.j.x.h.m.M.r.@.7.:.:.9.|.9.|.:X:X>X-.0 u 1 ",
"..4.*X3.:.*.4.&X7.' % 5 ; l a.e.u.e.e.w.r.n N N c g f hX[ . X     | ~ =.R.x s.p.h.k.j.h.h.l.m.F.r.@.`.*.,.;.:.0.<X<X>.q.| q 0 * ",
"| rX4X&.3.5.*X9.>.) . $ ; k C n r.u.u.r.b m m N M z f [.` 2 . .   ~ t J R.b e.i.c.h.j.h.p.f.M.F.e.@.>X8.>.:.9.:X:X9.9.6.` 8 X X ",
"*.yX8.:.:.5...4.` % 0 8 + l C m n w.a.a.a.m m m x v g E.G ) 8 X   u q +.W.r.e.p.n.c.n.n.y.i.M.c.r.@._.*..X8.9.0.6.q.,X .p 1 7 % ",
"y { ` _ ` ` a ) 9 o y q > d c C M r.a.r.m b M N v v g W i [ t     # . `.Q.n u.x.x.x.v.y.y.l.g.n.d.Q.:.8.8X6.6.6.>.6.0.} R # t 0 ",
"$ ~ y 5 5 y y y y $   Y > - l v M m b b N z M N x v h W H 0 7     # # `.W.b u.b.b.l.l.t.y.g.v.M.m !.9.:X9.6.*X,X>X6.| X._ & 0 q ",
"~ _ y q @ $ 5 5 5 o o q > - h z c b x v z z z x z g g I D 8 1     ~ a ] W.b t.g.i.p.t.t.y.y.h.n.M @.9.9.:X<X:X,X:X0. .` ) 7 8 * ",
"^ 5 y ~ 5 q $ @   . q % e = d g v b x x x z z z g f g k > & @     ~ a ] W.x u.g.t.t.t.i.g.f.h.l.N ].9.;X9.:X&Xq.>.:X>.a p % t % ",
"~ ^ 3.*.3.3.| | _ p y y > = d g z v M x z z z c g f f j O ' 9     ~ ` +.W.x r.g.u.t.t.p.v.h.n.l.c o.|  .:.;.;.#. .-.| 0 w & Y 7 ",
"5 *XyXeXpXMXpXaXaX>Xq.&.6 = d h v v x v c x z g g f d D = +.~     ~ } H Q.n s.i.t.e.t.p.l.f.h.B.V F ^ _ { ^ `  ._ u a q % % u q ",
"~ yXyX*X4X3X6X6XeXfX7X4X+.= - h h M M M x v c c f h d k , | a     ^ } e W.m i.g.t.u.p.l.v.n.z.v.N.K a y 0 u ^ q & 1 7 # X a ) # ",
"@ 7XpX3.3.&X:.*.:.:.&.3.+., d f c M m V N v c c v h d P , { y     p } ^ Q.n u.g.e.l.v.l.n.M.F.B.C , $ @   @ q 5 . X s a $ q #.u ",
"y *X*X3.:.&.*.&.{ | | 3.] = - f c v M M M v z v v f d P > 5 5     ^  .] (.x u.b.t.t.i.v.v.l.F.B.v D 5 5 % $ # u % 1 q q | ) | a ",
"^ 8X8.*.:.| ;.6.:.| | &.^ % < - d f f g h f g v h h d P , : q     ) 9.] [.z m a.n n s.s.V.A.Z.A.V j w 8 u u * .   X   . s .. .% ",
"..8X*X:.6.8.;.3.9.*.*. .:.3.*.] J P P F F D F D j j j D 6 p y X X % i e P d B B B k B v h C C C U o.$.q.:.>.#.....;.-.-. .Y _ 8 ",
"^ *X4X3.&.:.:.,...*.:.*.6.8.5.6.2.,.<.>.=.8.:X6.*.] =.{ ' { |  .i # 2 H < e ).`.).0X).@.).3 = , `.7X4XaXBXaXaXNXNXsXtXyXrX|.0 * ",
"y :.4.u y ^ p ` ^ ~ ~ _ | ) _ { R R ) ( ( &. . .&._ ^  .*.| ` _ ` % ) ) ~ ~ 9.4X8X,X<X8X7X#.# :.rX<X6.4.:X,X,X8X|.>.6.3X4X .% . ",
"y a a y a 0 0 8 7 8 q 7 t y u 0 0 s a a a q % 8 5 4 4 9 0 p 0 0 0 % a ` t u ~ } ;. ...| Y 7 t :X6X&X:.....:.:.0.<X|.0.0.:.0 *   ",
"9 t ` q 8 & q 7   & % % X . X X & # % q 7 . * .   X       X % 4   ( p _ a $ 4 $ % 1 7 8 # * & 6.&X6.;.0.>.} .. . .X...| ) % % # ",
"4 a ` 7 8 0 a 0 q a q u ~ $ # q $ 8 0 % q p 0 s 7 . X # * # 2 Y # ;.q.a ) % @ $ # # # # t $ 0 a p s 0 a 0 % 7 & * # * $ # @ 8 * ",
"% ) ` y 0 ) ( a _ a s 0 a 8 t 0 u ( u ( ` ` ~ y ~ $ # 8 8 u ` Y a )  .` 7 % y q & Y u a ..X.` 7 . * & $ % 8 # # 7 $ 2 # % a u X "
};
