/* XPM */
static char *ff0039e98e4241a9add88d3fa782bc830Kqxa96fyhdnvfJx[] = {
/* columns rows colors chars-per-pixel */
"64 64 246 2 ",
"   c #010101",
".  c #0B0302",
"X  c #0D0A03",
"o  c #0C0C0C",
"O  c #070807",
"+  c #130101",
"@  c #1B0201",
"#  c #130C02",
"$  c #1A0E03",
"%  c #120D0C",
"&  c #1A0D0C",
"*  c #0D130D",
"=  c #161302",
"-  c #1B1403",
";  c #1E1A02",
":  c #12110D",
">  c #1B150B",
",  c #1D190A",
"<  c #130F11",
"1  c #0F1111",
"2  c #141313",
"3  c #1A1412",
"4  c #1B1C1B",
"5  c #171917",
"6  c #0E0D11",
"7  c #230202",
"8  c #2C0201",
"9  c #290E0F",
"0  c #340102",
"q  c #3A0203",
"w  c #3A0907",
"e  c #231C03",
"r  c #231C0B",
"t  c #291E0A",
"y  c #241706",
"u  c #35120B",
"i  c #251915",
"p  c #371817",
"a  c #182015",
"s  c #2C2402",
"d  c #26210C",
"f  c #2C230B",
"g  c #292607",
"h  c #342A01",
"j  c #332A09",
"k  c #3A340A",
"l  c #2D2912",
"z  c #23211D",
"x  c #2A2518",
"c  c #322B15",
"v  c #362B1A",
"b  c #39331A",
"n  c #1E1E21",
"m  c #211E21",
"M  c #1F2A21",
"N  c #242323",
"B  c #2C2C2C",
"V  c #292625",
"C  c #342D2A",
"Z  c #2D302C",
"A  c #383527",
"S  c #2E2D31",
"D  c #343433",
"F  c #3B3B3B",
"G  c #393836",
"H  c #322E30",
"J  c #440101",
"K  c #490707",
"L  c #560306",
"P  c #471513",
"I  c #531215",
"U  c #520E0F",
"Y  c #680708",
"T  c #68181A",
"R  c #791417",
"E  c #6F0C10",
"W  c #433903",
"Q  c #453A14",
"!  c #522A14",
"~  c #592528",
"^  c #433C25",
"/  c #413E3A",
"(  c #4D2B30",
")  c #692627",
"_  c #792728",
"`  c #70352E",
"'  c #631B24",
"]  c #3D413D",
"[  c #4A4209",
"{  c #544B0D",
"}  c #4A4518",
"|  c #544C17",
" . c #5C5418",
".. c #5B510B",
"X. c #695619",
"o. c #6B621B",
"O. c #766A1A",
"+. c #6A610F",
"@. c #484529",
"#. c #5B5624",
"$. c #454239",
"%. c #5B5937",
"&. c #544B29",
"*. c #67432B",
"=. c #645C28",
"-. c #675B39",
";. c #774B2A",
":. c #6A6426",
">. c #746B28",
",. c #7C7429",
"<. c #66633A",
"1. c #797039",
"2. c #3D3E41",
"3. c #403F40",
"4. c #3F4241",
"5. c #434343",
"6. c #4C4C4C",
"7. c #474747",
"8. c #514D4C",
"9. c #55544A",
"0. c #535454",
"q. c #5C5C5C",
"w. c #595957",
"e. c #4E4E51",
"r. c #6F524E",
"t. c #656541",
"y. c #67635B",
"u. c #7B7754",
"i. c #757145",
"p. c #615F60",
"a. c #646464",
"s. c #6C6C6C",
"d. c #696867",
"f. c #736B6C",
"g. c #76736D",
"h. c #747474",
"j. c #767679",
"k. c #7C7C7C",
"l. c #787776",
"z. c #6E716F",
"x. c #5B5C5F",
"c. c #861319",
"v. c #890F12",
"b. c #901C26",
"n. c #892627",
"m. c #97282A",
"M. c #9A2A31",
"N. c #8E3032",
"B. c #A42225",
"V. c #A4181D",
"C. c #837428",
"Z. c #837A32",
"A. c #A53C43",
"S. c #9C3C42",
"D. c #944A50",
"F. c #AE4C59",
"G. c #86774E",
"H. c #877271",
"J. c #A46E76",
"K. c #8B8538",
"L. c #948C3A",
"P. c #91882F",
"I. c #A99A38",
"U. c #ABA138",
"Y. c #8B8247",
"T. c #968E45",
"R. c #9A9346",
"E. c #888557",
"W. c #938C58",
"Q. c #9A9359",
"!. c #A39847",
"~. c #A9974F",
"^. c #B5A848",
"/. c #ABA459",
"(. c #B6AB58",
"). c #BAB65A",
"_. c #B0AB48",
"`. c #83827E",
"'. c #959069",
"]. c #AB9C63",
"[. c #AAA468",
"{. c #B7A868",
"}. c #BCB76A",
"|. c #BEB875",
" X c #B4A678",
".X c #C6B749",
"XX c #C5B959",
"oX c #CAAF5C",
"OX c #C3BA64",
"+X c #C5BA78",
"@X c #CEC25A",
"#X c #CDC569",
"$X c #D7CA66",
"%X c #DED66A",
"&X c #CAC576",
"*X c #D6CB77",
"=X c #DCD276",
"-X c #E2D779",
";X c #E3D66B",
":X c #7E7D80",
">X c #967C82",
",X c #7F8382",
"<X c #838383",
"1X c #8E8E8E",
"2X c #8B8B8B",
"3X c #888788",
"4X c #919191",
"5X c #969696",
"6X c #939393",
"7X c #999999",
"8X c #9D9D9D",
"9X c #9B9B9B",
"0X c #979696",
"qX c #949292",
"wX c #A29E9F",
"eX c #ABAC94",
"rX c #A2A2A2",
"tX c #A5A5A5",
"yX c #A3A3A3",
"uX c #AAAAAA",
"iX c #ABABAB",
"pX c #A6A9A6",
"aX c #ADB1AD",
"sX c #B3B3B3",
"dX c #BBBBBB",
"fX c #B8B8B3",
"gX c #B0AFB0",
"hX c #9FA0A2",
"jX c #C6BB8B",
"kX c #BFC1BF",
"lX c #D5CD8C",
"zX c #E5DA82",
"xX c #E4D784",
"cX c #E4DB98",
"vX c #EBE388",
"bX c #F0E798",
"nX c #C1C2BE",
"mX c #FBF7B2",
"MX c #C3C3C3",
"NX c #CBCBCB",
"BX c #D3D5D4",
"VX c #D0D0CE",
"CX c #FFFFC4",
"ZX c #E6E5E2",
"AX c #FBFAF8",
"SX c #FFEEED",
/* pixels */
"w.uX4X<X6X1X2X4X1Xq.5.O O m 1 s.tXiX9X8XVXh.  w.iXiX8XgXiX3X<X5X3Xl.4X4X9XyX2X9XdX5.o h.5X9XgXMXhXF <   O 2.a.<X3X1X3X2X6X:XsXp.",
"0.8X1X:X9X3X4Xz.B   o F 5.o O w.dXuX0X5XyXsXB 5 4XsXyX6X5X9Xk.k.tXpX4Xj.4X<X<X9X3XO F 8XiX9X0XdXMX7.1 5.4   2 d.2XiX1X6X7Xl.pXd.",
"e.6X2XyX9XtX3XN   N l.dXsXF O n z.1X8X5X0XMXa.  d.uX<Xk.3X3Xk.<X5X8XtX3X3Xk.4XuXw.O h.uX9X2X9X8XN   5.sXsXa.2   w.6X5X4X0X3XtXz.",
"w.5Xk.yX5Xl.F 2 6.3XhX9XMXNXF   z h.tX1X2XdXyX6 5 3X8X0X5X3X<X3Xk.<X<X3XyXtXiX4X4 D 3X3X9X8X9XF   D <XgXdXMX8X4   6.4X3X2X3X9Xd.",
"6.1X1X4Xj.m O 5.8X5X4X3X0XMXsXB   n a.4X9X4XdXs.  0.yX9X7X4Xk.<X7X9X2X9XH.:X9X2.  6.3X<XiX3X5.  F 9X8XyX9X5XMXuX2   q.3X<X3XgX0.",
"6.3XhX<XD 6 D k.8X5X3X1X9X5XsXMXD   4 h.iX0XyX7X5 o 6.s.<X,X<X2Xz.6X9Xh.h.k.x.  B l.5XyXpXF   3.3X4X8X3X5X5X9XNXuX4 O z.uX4XsXd.",
"0.0XtXp.N 1 G hX9X5X5X9X4X3X1XdXdXB   V d.1Xk.4XD   6 4 B F F F D 5.G 3.G B B 4 D k.8X5Xw.O D 3X1X<X3X<X3X<Xk.tXBXp.  S 6XyXuXd.",
"2.9Xp.O 6 4 4 s.tXyXiX4Xk.<X1X4XdXdX3.  N D D B m O 6 O 5 o 2 4 2 o 2 o 2 2 1 N 4 B e.5.o B :XyX1X4X6X4X8X3X3X8X0Xq.4   5.1XVXp.",
"5 2.2 o 4 O   4 5.k.yX4X3Xl.<X6X3XdX<X5 o 2 O   2 4 5 2 5 2 4 N n 5 1 o 2 O       2 5 2 1 F 3XyX,X1X<Xh.5XtX1Xw.D 6 D 4   F 3Xw.",
"5 O S 5XuXk.N   O B 0.k.7X9Xk.k.4Xh.5.N 2 < 4 6 O F 5.2.B H D B D B V B O   4 B 4 4 O 4 D 2 5.l.>XyX4X<X4Xl.F * 4 0.6X<XN   4 B ",
"5 5 1XuXuXNXsXe.2     B z.9X5X3X0.6.F O   5.q.4   D 5.D D 7.D B F D S F O   q.k.s.5.  5 5.B 2 n a.5X8Xl.6.N N e.h.7XuXMX1Xo O 2 ",
"4 G 5X1X9X2X8XgX6Xw.6   5 6.l.6.N N 5   O p.q.4       2 4 4 B N N B 1 O     a.w.5.B     4 D n 1 M 0.w.F 2 F 1X7X<Xk.1XuXsX6.1 6 ",
"o w.7X8X6X0X<X3XgXMXuX0.  2 N o 6 n D o   e.p.4                     O 2 o   q.q.F B O   O N 4 G 2 5 N D k.6X7X4X4X5X7X9XdXh.O < ",
": k.pX6X2X0X0X9X8X0XsXBXk.O o 5 D 7.D O   6.p.<   F q.V o B D     B e.6.0.N 3.5.B D N   O 6.B N n O 0.7X6X3X2X4X8X7X9X<XuXuXB o ",
"z `.yX6X<XyX4X6X2X3X2XMX4XO O F 7.5.4     2.0.% 2 y.q.s.d.w.D   4 q.D 4 F 4 D S S F D     3.B 4 1   a.aXh.<XyXwX5X<X1X1X3XiXF o ",
"5 g.dXwX1X8X3X6X5X3X:XuXw.O N F D 6.S     H B     G B D G x     3 V : B 4   $.$.x V %     S 2.D 4 O S 6XhX4X2X<X1X4X4XhXtXiXD n ",
"5 B 8.a.h.h.a.<XpX1XtX<XN B 5.S B 3.V     d s l ; d B n X X $ v k g ; i o   A b c &.Q -   4 4.] V O o D 9XhX1X2X,X:X:Xs.s.j.B 4 ",
"5       2 4 V D 3.k.<XB 4 D 4 2 2 <   5 E.eX*X}.u.x       t.lXjX&X}.=.= %   = } W.lXcXlXu.= 5 5 5   n n D s.l.w.F D D 5 o N 4 4 ",
"N ] 8.B 2 2       o S V 5           x lXCXlX/.#.%.A     t lXmXY.:.*X#X:.# . O %.<.Z._.bXCXG.        6 N O O 6 6     O N F 6.F 4 ",
"F wXsXpX1Xk.q.6.6.F N 1 V e.G B X v lXmX}.o.s = l b G d k &XbX+X[.).vXbX].# X b g ; k L.lXmX<., H D 4 m F 5 B 5.0.s.l.3X9XsXyX4 ",
"F 2X1X5X9XtXuXsXkXdX0.  7.h.6.7.g [.mX(.{ s X b } ; x = | *X-X-X!.C.C.].jXx   v b = # h K.vX[.g w.d.D m p.tXaXsXgXuX0XyX9Xk.yXB ",
"5.k.3X3Xs.1X4X3X1XsXh.  S 7.N o c lXvXZ.s d X c @.= X   :.-X-XXXO.W h + $ .   b @.e = s | (.cX| - x 4 < G gX,X,X2Xh.s.6X3Xk.9XB ",
"G 3X3X1X2X6X5Xk.,XpX6.  G 4.n O %.bXOX .; , c [ Y. .= e R.xX;XXXP.O.>.t   . ; E.=.e i l s K.vX[.r z N % N 2Xk.2X9X5X<X<Xl.3XiXF ",
"$.3Xs.<X,X2X1Xk.h.hXe.o n 7.i . %.cXT.h j x l | R.).K.Z.}.-XoX;X$XI.^.T.<.1.L.&X1.j , i s :.*XlXb 5 4 < D qX4X>Xk.4X9Xk.a.<XyXB ",
"F <X1X<Xk.l.2X8X3XtX6.O   6     } lXZ.h l , r j  .}.vXvXxX=X=XxXvX-XoX*XzXzX*X!. .Q y $ y | #X&X=   1 4 B h.9X1Xl.<Xl.k.3X3X3XN ",
"z z.5X1X<Xh.z.:X<X1XF 2 o       b cXT.s , c > r h :.*X-X=X-XxXxXxXxXxX-X-XxX/.W s e v v & W *X|.#   5 G N q.s.,X:X2X:Xh.k.3X4XD ",
"2 B Z F D B V F D F F N F 0./ % ^ lXT.e r l b t e [ R.=XxXxXxX-X=X-XxX-XzXOXX.s g d A x f { OX|.;   5 D 4 N z B 2.F N B B F a.S ",
"X             O   < 4 O 3.3./ O c lX,.s , = c c k s +.).=X$X$X$X;X=X$X$X;XR.s = } ] , r y | OX{.#   o 1 2     O O o o 5 1 o z 2 ",
"7.z.z.h.l.h.j.:Xl.2XD O 4 o 4   c lXL.s ; , = f l - W ^.$XXX.X.X.X.X.X.X$XK.s r l r ; ; ; { =X{.#   X 5 2 6.:X<X4X<X5X8X<XgX,XX ",
"s.hX7XsXyXhXpXuXtXsXD n O       b OXL.j g ] ; g y y h L.XX.XI.U..X^.I..XoX:.e # r d l b y ..).Q..   5 S N k.hX7XiX5XtX8X9XpXsXS ",
"9.3Xj.l.l.k.k.,X3X9XB 2 O       t /.R.k s b ] l j t t X.!.P.C.C.C.C.C.P.K.} $ d A c b b e o.).1.    * n S h.k.<X3X<Xh.h.2X3XyX4 ",
"8.6X,Xk.k.<X<X<X7X1XD N     z o + /.#X| ; c k c b b W =.+.o.W W W W ..O.o.Q = d A @.v y h R.&Xk O   O 5 N s.0X9X<Xj.:X<X<X2XpXF ",
"w.2X,X2X,Xk.5Xk.<X4X4 4 4 O e.5.= Y.vXo.g g g l t d b :.,...t f ^ h [ +.:.Q , , v A c - h |.].; $.e.N a N z.5Xh.j.j.3X<Xs.3XgXF ",
"6.<X<Xs.z.k.H.a.s.tXD O O 2 w.A = 1.lXZ.g g c d x r g o.L.>.s r l t { P.Z.} t i y l j ; [ |.-.v $.e.G n N z.6Xk.h.<X3Xh.d.3X7Xn ",
"7.<X4X<X,Xz.k.j.1XyXB N o   w.6.3 g [.}.k h l C C i s ,._._.} + y s >._.!. .- % # d d y >.jX> ^ w.F a 5 4 z.1X<Xl.3X3Xh.l.l.5X5.",
"D x.p.h.p.p.a.a.a.s.N 5 2   D e.2   <.bX1.; ; x N % { L._.(.| # y e Y.@X(.=., > > e e W +X'.  N w.n 2 n 4 6.w.e.a.a.w.d.p.a.k.e.",
"6 6   2 4 4 O   5 N 4 5 O   2 5        XcXQ = V x $ g !.%X^.{ . > ; L.$X=X#.l Z X e h L.mX&.  o 4     1 2 4 O o 4 N O 2 4 o 4 B ",
"B S F D F 5.F S 5.5.O 2 1   3 5 i N * c lX[.; a % . 1.-X;X;XR.t + #.#X;XzX{.b : % # | cXW.#   2 5 N n 6 4 B N D D D D S D ] 4 o ",
"x.hXuXuXuXgXiXiXdXgXF 5 o   O q.s.5.V X } [.t.X   t  X~.oX^.{.G.-.].].oXoX].<.# X x '. Xf       q.s.B N N 6.hXMXdX9XiXyX8XdX7X6 ",
"7.1X2X7X3X<Xl.<X5X8X2.O o   2 l.5.G z *   ; A . + u ! K ;.! ! ! j ` ! ! X.! ^ y : A 9.= , %   1 k.F n V 5 6.<X1X4Xk.l.<X,X4XyX4 ",
"7.<X,X3Xj.d.<Xl.l.4XF 6 O   2 a.G F Z M *   < v w U K w 8 7 + @ @ + 7 8 J U ! ! - $ # > Z 3   1 s.F 4 n 5 F k.s.h.k.s.s.h.1X<X2 ",
"6.:X<X,Xj.j.3Xk.z.9XD 4 2   5 s.7.n a a O O ( ) T L 7 @ 7 @           + 7 q _ D.p @ i N S o   2 h.5.: n 4 D l.k.h.4Xs.h.<X:X<XD ",
"0.k.:X4Xh.h.3Xh.4XuXB O       N 1       . 9 _ Y T J.J.d.. . y.H.H.g.g.H.H.H.' _ D.u O O 2       N o   N N D s.<X9X4Xj.s.<Xk.3X5.",
"7.d.d.:Xs.z.l.h.3XuXH O 4 2.0.D D D N i . P b.R I BXAXMX    fXAXZXZXZXZXBXSXD.L A.D.+     2 3.w.F B B V 4 D a.s.h.h.l.s.s.<X4XD ",
"4 B Z 2.2.3.B B 3.e.m 5 w.z.z.s.g.s.y.B + Y B.Y u uXBXaX  O 5XVXnXBXBXBXBXAXr.J R F.'   O a.f.f.s.s.5.D o N 0.5.D D B D D F w.N ",
"6             5 O O O 4 s.S B Z ] 7.D . 0 E b.Y p eXVXaXO O 9XVXdXH.h.j.j.2XC 8 R M.D.  1 s.D m B 5.N 1 o   O       o O O o o B ",
"F h.>Xx.q.a.j.k.,X3XB o a.7.G 4.5.8.D + q R n.U 9 8XVXpX    2XVXfX            8 E v.F.9 O j.e.S F 7.F N N a.a.a.s.a.3X<Xh.<Xq.4 ",
"a.pXkXsX5X1X9X9XsXsXG o 6.e.5.0.5.4.D & L c.n.0 : 8XkXaXG Z 3XkXkX3.5 N N m o . L v.S.(   p.8.3.0.5.B B S 1XtXuXuX4X4XyX1XsXdXD ",
"5.<X,Xh.h.s.s.k.k.<XG 4 D B D 6.5.F 4 + U b._ & 2 0XiXsXNXkXpX9XaXkXdXdXdXBX7.  J v.M.( . G H G 6.F B 5 5 k.4Xj.z.H.d.a.z.<X8XN ",
"6.h.k.3X,X<Xh.,X9XyXF o 3.5.B D D 5.C + Y c._ % < 0XsXuXaXpX9X9X5XtXsXtX7XMX6.  K c.M.~   3.7.S D D D V N h.<Xj.,X:Xh.z.2X6X0X5 ",
"N 5.6.w.a.0.7.0.a.s.N   5.0.F D D w.G + L R n.7 < j.,Xk.z.l.6X6X1X:Xs.>X0XsX7.  K c.m.~   F w./ G S V N 5 F 0.0.0.p.7.e.q.a.a.n ",
"6     O 4 O       4 N   B 7.5 4 4 4 1 . K R N.p O O       O l.9X5X6 O p.qXiX7.  K c.m.~   Z 7.5 5 4 o 6 5 2 O O 2 2       1 4 N ",
"B F 4.0.6.S ] Z F D o o o               J R N.)             y.1X5X1   q.<XhX5.  L v.N.p O o           o 4 G 5.5.D F D B 5.7.B 4 ",
"a.sXiXtX7X4XhXhXuXsXq.4 N 6.F B Z S G $.w E b._ p f.h.z.z.s.g.k.1X4   x.>XwX2.7 R c.n.9   N 6.F S B B 0.S :X8XyXyXuXhXtXiXkXhXn ",
"6.2X3Xh.h.j.,Xk.s.tXs.5 6.h.w.j.s.d.s.y.u J b.' V 3XwX6X6X2Xk.`.4X5   w.H.wX/ J c.c.` 3   7.h.q.l.s.F Z B h.<X<Xk.<Xl.k.k.2XyXF ",
"0.l.h.>Xj.h.d.z.s.tX5.  F 6.F F S B V N i 8 ' T u y.y.a.d.d.z.z.3X5   w.f.wXr.L c._ ( <   G 7.G 5.B 5 4 5 s.<Xh.h.z.h.k.s.h.6XD ",
"0.3Xl.s.d.h.k.:X>X7Xe.  S 5.V B F S V D F i 0 I w u p p & : 2 3 z O   3 9 C ' E R P .     D 7.Z B D N V 2 q.2Xk.l.h.h.<Xa.<X2X4 ",
"F h.l.a.d.s.a.k.,X,XF   4 6.B D F D D B D V & 0 P L I T P + . + + 7 8 0 0 0 L T P @       5 0.B S F n 4 4 5.z.s.q.k.h.w.s.h.0XB ",
"n S N B B B B D S 7.B 6   5 o o O 5 4 4 S F S 9 K T R M.M.M.N.n.n.b.m.b.E T U 8 . .         5 o o O O 5 5 4 n 5 N N 5 n B B 6.S ",
"2 O 4 B 5 2 o 5 M 4   O           O     2 4 4 o + 8 L R c.M.m.B.B.V.V.v.Y I p x m n N 4 o O         O O 6 O 6 5 O 2 < 2 o       ",
"7.:X2XyX3X<X3X<X8X4XN 5 G 9.7.B o 2 o               + 7 0 J L L L Y L q w p H e.x.x.e.x.7.6.6.5.N O   4 S a.3X6Xk.z.h.k.<X1Xh.4 ",
"5.9X3Xk.7X7X5X4X8XaXG 4 7.7.9.z     n q.D       < 1 % + Q r.*.~ *.` -.v & 4 V 2.B D V D 3.8.7.w.N   o 4 5 h.2X2XyX3X1Xh.4XiXsX7.",
"2.l.l.l.s.a.a.z.k.1XZ : *   , #   O v l.y.A # X $.G @.%.W.lX+X+X+XOX[.].^   X > X   # d $ .   ,     N B O q.h.j.>Xs.q.a.<X3X1XB ",
"7.s.k.k.h.w.s.g.k.1XZ : a 9.u.u.u.W.u.E.'.'.E.E.u.i.Y.E.W.T.~./.Q.T.G.E.W.t.%.%.t.<.<.t.<.-.-.t.9.%.G V * d.h.h.k.h.a.a.s.k.<X4 "
};
